<svg xmlns="http://www.w3.org/2000/svg" xmlns:xlink="http://www.w3.org/1999/xlink" width="605" height="388" contentStyleType="text/css" data-diagram-type="DESCRIPTION" style="width:605px;height:388px;background:#fff" preserveAspectRatio="none" version="1.1" viewBox="0 0 605 388" zoomAndPan="magnify"><g><g id="ent0003" class="cluster" data-qualified-name="Galaxy Weather System" data-source-line="8"><rect style="stroke:#000;stroke-width:1" width="509.23" height="233" x="89.91" y="12" fill="#FFF" rx="2.5" ry="2.5"/><text x="250.1" y="26.995" fill="#000" font-family="Verdana" font-size="14" font-weight="bold" lengthAdjust="spacing" textLength="188.85">Galaxy Weather System</text></g><g id="ent0004" class="entity" data-qualified-name="Galaxy Weather System.UC1" data-source-line="9"><ellipse cx="496.375" cy="137.995" fill="#FFF" rx="68.075" ry="16.015" style="stroke:#000;stroke-width:1"/><text x="445.632" y="142.643" fill="#000" font-family="Verdana" font-size="14" lengthAdjust="spacing" textLength="101.486">Enter Location</text></g><g id="ent0005" class="entity" data-qualified-name="Galaxy Weather System.UC2" data-source-line="10"><ellipse cx="195.27" cy="64.996" fill="#FFF" rx="77.98" ry="17.996" style="stroke:#000;stroke-width:1"/><text x="132.325" y="69.644" fill="#000" font-family="Verdana" font-size="14" lengthAdjust="spacing" textLength="125.891">Upload JSON Data</text></g><g id="ent0006" class="entity" data-qualified-name="Galaxy Weather System.UC3" data-source-line="11"><ellipse cx="195.272" cy="136" fill="#FFF" rx="76.352" ry="17.671" style="stroke:#000;stroke-width:1"/><text x="134.275" y="140.649" fill="#000" font-family="Verdana" font-size="14" lengthAdjust="spacing" textLength="121.994">Request Forecast</text></g><g id="ent0007" class="entity" data-qualified-name="Galaxy Weather System.UC4" data-source-line="12"><ellipse cx="496.379" cy="209.002" fill="#FFF" rx="86.759" ry="19.752" style="stroke:#000;stroke-width:1"/><text x="423.197" y="213.65" fill="#000" font-family="Verdana" font-size="14" lengthAdjust="spacing" textLength="146.364">View Forecast Result</text></g><g id="ent0008" class="entity" data-qualified-name="Galaxy Weather System.UC5" data-source-line="13"><ellipse cx="195.267" cy="209.001" fill="#FFF" rx="89.357" ry="20.271" style="stroke:#000;stroke-width:1"/><text x="119.125" y="213.65" fill="#000" font-family="Verdana" font-size="14" lengthAdjust="spacing" textLength="152.284">View Forecast History</text></g><g id="ent0002" class="entity" data-qualified-name="User" data-source-line="6"><ellipse cx="26.955" cy="179.35" fill="#FFF" rx="8" ry="8" style="stroke:#000;stroke-width:1"/><path fill="none" d="M26.9551,187.35 L26.9551,214.35 M13.9551,195.35 L39.9551,195.35 M26.9551,214.35 L13.9551,229.35 M26.9551,214.35 L39.9551,229.35" style="stroke:#000;stroke-width:1"/><text x="11" y="244.345" fill="#000" font-family="Verdana" font-size="14" lengthAdjust="spacing" textLength="31.91">User</text></g><g id="lnk9" class="link" data-entity-1="ent0002" data-entity-2="ent0004" data-link-type="dependency" data-source-line="16"><path id="User-to-UC1" fill="none" d="M43.07,223.5 C53.18,232.17 67.27,242.36 81.91,247 C167.8,274.21 197.8,271.05 284.62,247 C347.06,229.7 351.54,200.7 409.62,172 C424.99,164.4 436.8844,159.3595 452.0544,153.5695" style="stroke:#000;stroke-width:1"/><polygon fill="#000" points="457.66 151.43 447.825 150.902 452.989 153.213 450.678 158.376 457.66 151.43" style="stroke:#000;stroke-width:1"/></g><g id="lnk10" class="link" data-entity-1="ent0002" data-entity-2="ent0005" data-link-type="dependency" data-source-line="17"><path id="User-to-UC2" fill="none" d="M38.98,169.94 C47.32,146.94 60.99,118.94 81.91,101 C95.91,89 108.2119,82.7432 125.7219,77.3932" style="stroke:#000;stroke-width:1"/><polygon fill="#000" points="131.46 75.64 121.684 74.444 126.678 77.101 124.022 82.095 131.46 75.64" style="stroke:#000;stroke-width:1"/></g><g id="lnk11" class="link" data-entity-1="ent0002" data-entity-2="ent0006" data-link-type="dependency" data-source-line="18"><path id="User-to-UC3" fill="none" d="M43.19,196.32 C53.58,188.18 67.93,177.88 81.91,171 C100.51,161.83 116.2694,156.108 135.4594,150.518" style="stroke:#000;stroke-width:1"/><polygon fill="#000" points="141.22 148.84 131.46 147.517 136.419 150.238 133.698 155.197 141.22 148.84" style="stroke:#000;stroke-width:1"/></g><g id="lnk12" class="link" data-entity-1="ent0002" data-entity-2="ent0007" data-link-type="dependency" data-source-line="19"><path id="User-to-UC4" fill="none" d="M34.98,247.93 C41.1,269.58 52.36,294.76 72.91,308 C187.51,381.82 251.75,355.22 379.62,308 C422.54,292.15 456.4849,257.1244 476.4649,233.0844" style="stroke:#000;stroke-width:1"/><polygon fill="#000" points="480.3 228.47 471.471 232.835 477.104 232.315 477.624 237.948 480.3 228.47" style="stroke:#000;stroke-width:1"/></g><g id="lnk13" class="link" data-entity-1="ent0002" data-entity-2="ent0008" data-link-type="dependency" data-source-line="20"><path id="User-to-UC5" fill="none" d="M43.3,209 C58.02,209 75.5,209 99.6,209" style="stroke:#000;stroke-width:1"/><polygon fill="#000" points="105.6 209 96.6 205 100.6 209 96.6 213 105.6 209" style="stroke:#000;stroke-width:1"/></g><g id="lnk14" class="link" data-entity-1="ent0006" data-entity-2="ent0004" data-link-type="dependency" data-source-line="22"><path id="UC3-to-UC1" fill="none" d="M271.75,136.5 C319.77,136.82 375.4301,137.1899 421.8401,137.4999" style="stroke:#000;stroke-width:1;stroke-dasharray:7,7"/><polygon fill="#000" points="427.84 137.54 418.867 133.48 422.84 137.507 418.813 141.48 427.84 137.54" style="stroke:#000;stroke-width:1"/><text x="315.62" y="133.067" fill="#000" font-family="Verdana" font-size="13" lengthAdjust="spacing" textLength="63.007">«include»</text></g><g id="lnk15" class="link" data-entity-1="ent0006" data-entity-2="ent0007" data-link-type="dependency" data-source-line="23"><path id="UC3-to-UC4" fill="none" d="M249.05,148.88 C301.38,161.65 375.5811,179.7573 430.1111,193.0673" style="stroke:#000;stroke-width:1;stroke-dasharray:7,7"/><polygon fill="#000" points="435.94 194.49 428.145 188.47 431.083 193.304 426.248 196.242 435.94 194.49" style="stroke:#000;stroke-width:1"/><text x="315.62" y="162.067" fill="#000" font-family="Verdana" font-size="13" lengthAdjust="spacing" textLength="63.007">«include»</text></g></g></svg>