<svg xmlns="http://www.w3.org/2000/svg" xmlns:xlink="http://www.w3.org/1999/xlink" contentStyleType="text/css" data-diagram-type="DESCRIPTION" height="388px" preserveAspectRatio="none" style="width:605px;height:388px;background:#FFFFFF;" version="1.1" viewBox="0 0 605 388" width="605px" zoomAndPan="magnify"><defs/><g><!--cluster Galaxy Weather System--><g class="cluster" data-qualified-name="Galaxy Weather System" data-source-line="8" id="ent0003"><rect fill="#FFFFFF" height="233" rx="2.5" ry="2.5" style="stroke:#000000;stroke-width:1;" width="509.23" x="89.91" y="12"/><text fill="#000000" font-family="Verdana" font-size="14" font-weight="bold" lengthAdjust="spacing" textLength="188.8496" x="250.1002" y="26.9951">Galaxy Weather System</text></g><!--entity UC1--><g class="entity" data-qualified-name="Galaxy Weather System.UC1" data-source-line="9" id="ent0004"><ellipse cx="496.3753" cy="137.9951" fill="#FFFFFF" rx="68.0753" ry="16.0151" style="stroke:#000000;stroke-width:1;"/><text fill="#000000" font-family="Verdana" font-size="14" lengthAdjust="spacing" textLength="101.4863" x="445.6321" y="142.6435">Enter Location</text></g><!--entity UC2--><g class="entity" data-qualified-name="Galaxy Weather System.UC2" data-source-line="10" id="ent0005"><ellipse cx="195.2703" cy="64.9961" fill="#FFFFFF" rx="77.9803" ry="17.9961" style="stroke:#000000;stroke-width:1;"/><text fill="#000000" font-family="Verdana" font-size="14" lengthAdjust="spacing" textLength="125.8906" x="132.3249" y="69.6445">Upload JSON Data</text></g><!--entity UC3--><g class="entity" data-qualified-name="Galaxy Weather System.UC3" data-source-line="11" id="ent0006"><ellipse cx="195.2724" cy="136.0005" fill="#FFFFFF" rx="76.3524" ry="17.6705" style="stroke:#000000;stroke-width:1;"/><text fill="#000000" font-family="Verdana" font-size="14" lengthAdjust="spacing" textLength="121.9941" x="134.2753" y="140.6489">Request Forecast</text></g><!--entity UC4--><g class="entity" data-qualified-name="Galaxy Weather System.UC4" data-source-line="12" id="ent0007"><ellipse cx="496.3789" cy="209.0018" fill="#FFFFFF" rx="86.7589" ry="19.7518" style="stroke:#000000;stroke-width:1;"/><text fill="#000000" font-family="Verdana" font-size="14" lengthAdjust="spacing" textLength="146.3643" x="423.1968" y="213.6502">View Forecast Result</text></g><!--entity UC5--><g class="entity" data-qualified-name="Galaxy Weather System.UC5" data-source-line="13" id="ent0008"><ellipse cx="195.2671" cy="209.0014" fill="#FFFFFF" rx="89.3571" ry="20.2714" style="stroke:#000000;stroke-width:1;"/><text fill="#000000" font-family="Verdana" font-size="14" lengthAdjust="spacing" textLength="152.2842" x="119.125" y="213.6499">View Forecast History</text></g><!--entity User--><g class="entity" data-qualified-name="User" data-source-line="6" id="ent0002"><ellipse cx="26.9551" cy="179.35" fill="#FFFFFF" rx="8" ry="8" style="stroke:#000000;stroke-width:1;"/><path d="M26.9551,187.35 L26.9551,214.35 M13.9551,195.35 L39.9551,195.35 M26.9551,214.35 L13.9551,229.35 M26.9551,214.35 L39.9551,229.35" fill="none" style="stroke:#000000;stroke-width:1;"/><text fill="#000000" font-family="Verdana" font-size="14" lengthAdjust="spacing" textLength="31.9102" x="11" y="244.3451">User</text></g><!--link User to UC1--><g class="link" data-entity-1="ent0002" data-entity-2="ent0004" data-link-type="dependency" data-source-line="16" id="lnk9"><path d="M43.07,223.5 C53.18,232.17 67.27,242.36 81.91,247 C167.8,274.21 197.8,271.05 284.62,247 C347.06,229.7 351.54,200.7 409.62,172 C424.99,164.4 436.8844,159.3595 452.0544,153.5695" fill="none" id="User-to-UC1" style="stroke:#000000;stroke-width:1;"/><polygon fill="#000000" points="457.66,151.43,447.8253,150.9022,452.9887,153.2129,450.678,158.3763,457.66,151.43" style="stroke:#000000;stroke-width:1;"/></g><!--link User to UC2--><g class="link" data-entity-1="ent0002" data-entity-2="ent0005" data-link-type="dependency" data-source-line="17" id="lnk10"><path d="M38.98,169.94 C47.32,146.94 60.99,118.94 81.91,101 C95.91,89 108.2119,82.7432 125.7219,77.3932" fill="none" id="User-to-UC2" style="stroke:#000000;stroke-width:1;"/><polygon fill="#000000" points="131.46,75.64,121.684,74.4444,126.6782,77.101,124.0216,82.0953,131.46,75.64" style="stroke:#000000;stroke-width:1;"/></g><!--link User to UC3--><g class="link" data-entity-1="ent0002" data-entity-2="ent0006" data-link-type="dependency" data-source-line="18" id="lnk11"><path d="M43.19,196.32 C53.58,188.18 67.93,177.88 81.91,171 C100.51,161.83 116.2694,156.108 135.4594,150.518" fill="none" id="User-to-UC3" style="stroke:#000000;stroke-width:1;"/><polygon fill="#000000" points="141.22,148.84,131.4604,147.5167,136.4195,150.2384,133.6978,155.1974,141.22,148.84" style="stroke:#000000;stroke-width:1;"/></g><!--link User to UC4--><g class="link" data-entity-1="ent0002" data-entity-2="ent0007" data-link-type="dependency" data-source-line="19" id="lnk12"><path d="M34.98,247.93 C41.1,269.58 52.36,294.76 72.91,308 C187.51,381.82 251.75,355.22 379.62,308 C422.54,292.15 456.4849,257.1244 476.4649,233.0844" fill="none" id="User-to-UC4" style="stroke:#000000;stroke-width:1;"/><polygon fill="#000000" points="480.3,228.47,471.4712,232.8348,477.1041,232.3153,477.6236,237.9482,480.3,228.47" style="stroke:#000000;stroke-width:1;"/></g><!--link User to UC5--><g class="link" data-entity-1="ent0002" data-entity-2="ent0008" data-link-type="dependency" data-source-line="20" id="lnk13"><path d="M43.3,209 C58.02,209 75.5,209 99.6,209" fill="none" id="User-to-UC5" style="stroke:#000000;stroke-width:1;"/><polygon fill="#000000" points="105.6,209,96.6,205,100.6,209,96.6,213,105.6,209" style="stroke:#000000;stroke-width:1;"/></g><!--link UC3 to UC1--><g class="link" data-entity-1="ent0006" data-entity-2="ent0004" data-link-type="dependency" data-source-line="22" id="lnk14"><path d="M271.75,136.5 C319.77,136.82 375.4301,137.1899 421.8401,137.4999" fill="none" id="UC3-to-UC1" style="stroke:#000000;stroke-width:1;stroke-dasharray:7,7;"/><polygon fill="#000000" points="427.84,137.54,418.8669,133.48,422.8401,137.5066,418.8135,141.4798,427.84,137.54" style="stroke:#000000;stroke-width:1;"/><text fill="#000000" font-family="Verdana" font-size="13" lengthAdjust="spacing" textLength="63.0068" x="315.62" y="133.0669">&#171;include&#187;</text></g><!--link UC3 to UC4--><g class="link" data-entity-1="ent0006" data-entity-2="ent0007" data-link-type="dependency" data-source-line="23" id="lnk15"><path d="M249.05,148.88 C301.38,161.65 375.5811,179.7573 430.1111,193.0673" fill="none" id="UC3-to-UC4" style="stroke:#000000;stroke-width:1;stroke-dasharray:7,7;"/><polygon fill="#000000" points="435.94,194.49,428.1452,188.47,431.0826,193.3044,426.2482,196.2418,435.94,194.49" style="stroke:#000000;stroke-width:1;"/><text fill="#000000" font-family="Verdana" font-size="13" lengthAdjust="spacing" textLength="63.0068" x="315.62" y="162.0669">&#171;include&#187;</text></g><!--SRC=[VOz1IyD048Nlyol6t5kmIIzIScdLKaIX8NeUDcEwTBCRToTe4F-xcn9BSd5kxxsFUJCtSkA6iJMaBO3XTq5nw7Lz4goqPoNQMGXdRLlor61Bwamr5z8RnY4cMni682NEOndO0rnjJ1x9q5UFRqonnsFH1-4cmM_0E5rWHI5IzrPY-EGK3Mq9Ki1oUpjdojOugl1Gl3pZZeH6QZMdZlpHSH1yS7vmPAJIEVMg-VEAu953P_x8x3zohqFyiX_HDVm031_ZOf5V3fw8rLIaKv5DnJfksAQuN5uMu1rkDjegqrMSvvCacoU_]--></g></svg>