<svg xmlns="http://www.w3.org/2000/svg" xmlns:xlink="http://www.w3.org/1999/xlink" contentStyleType="text/css" data-diagram-type="SEQUENCE" height="967px" preserveAspectRatio="none" style="width:967px;height:967px;background:#FFFFFF;" version="1.1" viewBox="0 0 967 967" width="967px" zoomAndPan="magnify"><defs/><g><g><title>Browser</title><rect fill="#FFFFFF" height="754.3203" style="stroke:#000000;stroke-width:1;" width="10" x="187.6479" y="113.4297"/></g><g><title>Flask App</title><rect fill="#FFFFFF" height="87.3984" style="stroke:#000000;stroke-width:1;" width="10" x="423.6938" y="142.5625"/></g><g><title>Flask App</title><rect fill="#FFFFFF" height="462.9922" style="stroke:#000000;stroke-width:1;" width="10" x="423.6938" y="259.0938"/></g><g><title>Flask App</title><rect fill="#FFFFFF" height="87.3984" style="stroke:#000000;stroke-width:1;" width="10" x="423.6938" y="751.2188"/></g><g><title>WeatherAPI</title><rect fill="#FFFFFF" height="29.1328" style="stroke:#000000;stroke-width:1;" width="10" x="542.5132" y="317.3594"/></g><g><title>WeatherAPI</title><rect fill="#FFFFFF" height="29.1328" style="stroke:#000000;stroke-width:1;" width="10" x="542.5132" y="375.625"/></g><g><title>WeatherAPI</title><rect fill="#FFFFFF" height="29.1328" style="stroke:#000000;stroke-width:1;" width="10" x="542.5132" y="433.8906"/></g><g><title>ForecastEngine</title><rect fill="#FFFFFF" height="288.1953" style="stroke:#000000;stroke-width:1;" width="10" x="714.7461" y="288.2266"/></g><g><title>SQLite DB</title><rect fill="#FFFFFF" height="29.1328" style="stroke:#000000;stroke-width:1;" width="10" x="923.3066" y="171.6953"/></g><g><title>SQLite DB</title><rect fill="#FFFFFF" height="29.1328" style="stroke:#000000;stroke-width:1;" width="10" x="923.3066" y="605.5547"/></g><g><title>SQLite DB</title><rect fill="#FFFFFF" height="29.1328" style="stroke:#000000;stroke-width:1;" width="10" x="923.3066" y="663.8203"/></g><g><title>SQLite DB</title><rect fill="#FFFFFF" height="29.1328" style="stroke:#000000;stroke-width:1;" width="10" x="923.3066" y="780.3516"/></g><g class="participant-lifeline" data-entity-uid="part1" data-qualified-name="User" id="part1-lifeline"><g><title>User</title><rect fill="#000000" fill-opacity="0.00000" height="803.4531" width="8" x="24.9551" y="82.2969"/><line style="stroke:#000000;stroke-width:1;stroke-dasharray:5,5;" x1="28" x2="28" y1="82.2969" y2="885.75"/></g></g><g class="participant-lifeline" data-entity-uid="part2" data-qualified-name="Browser" id="part2-lifeline"><g><title>Browser</title><rect fill="#000000" fill-opacity="0.00000" height="803.4531" width="8" x="188.6479" y="82.2969"/><line style="stroke:#000000;stroke-width:1;stroke-dasharray:5,5;" x1="192.1284" x2="192.1284" y1="82.2969" y2="885.75"/></g></g><g class="participant-lifeline" data-entity-uid="part3" data-qualified-name="Flask" id="part3-lifeline"><g><title>Flask App</title><rect fill="#000000" fill-opacity="0.00000" height="803.4531" width="8" x="424.6938" y="82.2969"/><line style="stroke:#000000;stroke-width:1;stroke-dasharray:5,5;" x1="427.832" x2="427.832" y1="82.2969" y2="885.75"/></g></g><g class="participant-lifeline" data-entity-uid="part4" data-qualified-name="API" id="part4-lifeline"><g><title>WeatherAPI</title><rect fill="#000000" fill-opacity="0.00000" height="803.4531" width="8" x="543.5132" y="82.2969"/><line style="stroke:#000000;stroke-width:1;stroke-dasharray:5,5;" x1="546.5557" x2="546.5557" y1="82.2969" y2="885.75"/></g></g><g class="participant-lifeline" data-entity-uid="part5" data-qualified-name="Engine" id="part5-lifeline"><g><title>ForecastEngine</title><rect fill="#000000" fill-opacity="0.00000" height="803.4531" width="8" x="715.7461" y="82.2969"/><line style="stroke:#000000;stroke-width:1;stroke-dasharray:5,5;" x1="719.7319" x2="719.7319" y1="82.2969" y2="885.75"/></g></g><g class="participant-lifeline" data-entity-uid="part6" data-qualified-name="DB" id="part6-lifeline"><g><title>SQLite DB</title><rect fill="#000000" fill-opacity="0.00000" height="803.4531" width="8" x="924.3066" y="82.2969"/><line style="stroke:#000000;stroke-width:1;stroke-dasharray:5,5;" x1="928.04" x2="928.04" y1="82.2969" y2="885.75"/></g></g><g class="participant participant-head" data-entity-uid="part1" data-qualified-name="User" id="part1-head"><text fill="#000000" font-family="Verdana" font-size="14" lengthAdjust="spacing" textLength="31.9102" x="10" y="78.9951">User</text><ellipse cx="28.9551" cy="14" fill="#FFFFFF" rx="8" ry="8" style="stroke:#000000;stroke-width:1;"/><path d="M28.9551,22 L28.9551,49 M15.9551,30 L41.9551,30 M28.9551,49 L15.9551,64 M28.9551,49 L41.9551,64" fill="none" style="stroke:#000000;stroke-width:1;"/></g><g class="participant participant-tail" data-entity-uid="part1" data-qualified-name="User" id="part1-tail"><text fill="#000000" font-family="Verdana" font-size="14" lengthAdjust="spacing" textLength="31.9102" x="10" y="897.7451">User</text><ellipse cx="28.9551" cy="910.0469" fill="#FFFFFF" rx="8" ry="8" style="stroke:#000000;stroke-width:1;"/><path d="M28.9551,918.0469 L28.9551,945.0469 M15.9551,926.0469 L41.9551,926.0469 M28.9551,945.0469 L15.9551,960.0469 M28.9551,945.0469 L41.9551,960.0469" fill="none" style="stroke:#000000;stroke-width:1;"/></g><g class="participant participant-head" data-entity-uid="part2" data-qualified-name="Browser" id="part2-head"><rect fill="#FFFFFF" height="30.2969" rx="2.5" ry="2.5" style="stroke:#000000;stroke-width:1;" width="71.0391" x="157.1284" y="51"/><text fill="#000000" font-family="Verdana" font-size="14" lengthAdjust="spacing" textLength="57.0391" x="164.1284" y="70.9951">Browser</text></g><g class="participant participant-tail" data-entity-uid="part2" data-qualified-name="Browser" id="part2-tail"><rect fill="#FFFFFF" height="30.2969" rx="2.5" ry="2.5" style="stroke:#000000;stroke-width:1;" width="71.0391" x="157.1284" y="884.75"/><text fill="#000000" font-family="Verdana" font-size="14" lengthAdjust="spacing" textLength="57.0391" x="164.1284" y="904.7451">Browser</text></g><g class="participant participant-head" data-entity-uid="part3" data-qualified-name="Flask" id="part3-head"><rect fill="#FFFFFF" height="30.2969" rx="2.5" ry="2.5" style="stroke:#000000;stroke-width:1;" width="81.7236" x="387.832" y="51"/><text fill="#000000" font-family="Verdana" font-size="14" lengthAdjust="spacing" textLength="67.7236" x="394.832" y="70.9951">Flask App</text></g><g class="participant participant-tail" data-entity-uid="part3" data-qualified-name="Flask" id="part3-tail"><rect fill="#FFFFFF" height="30.2969" rx="2.5" ry="2.5" style="stroke:#000000;stroke-width:1;" width="81.7236" x="387.832" y="884.75"/><text fill="#000000" font-family="Verdana" font-size="14" lengthAdjust="spacing" textLength="67.7236" x="394.832" y="904.7451">Flask App</text></g><g class="participant participant-head" data-entity-uid="part4" data-qualified-name="API" id="part4-head"><rect fill="#FFFFFF" height="30.2969" rx="2.5" ry="2.5" style="stroke:#000000;stroke-width:1;" width="95.915" x="499.5557" y="51"/><text fill="#000000" font-family="Verdana" font-size="14" lengthAdjust="spacing" textLength="81.915" x="506.5557" y="70.9951">WeatherAPI</text></g><g class="participant participant-tail" data-entity-uid="part4" data-qualified-name="API" id="part4-tail"><rect fill="#FFFFFF" height="30.2969" rx="2.5" ry="2.5" style="stroke:#000000;stroke-width:1;" width="95.915" x="499.5557" y="884.75"/><text fill="#000000" font-family="Verdana" font-size="14" lengthAdjust="spacing" textLength="81.915" x="506.5557" y="904.7451">WeatherAPI</text></g><g class="participant participant-head" data-entity-uid="part5" data-qualified-name="Engine" id="part5-head"><rect fill="#FFFFFF" height="30.2969" rx="2.5" ry="2.5" style="stroke:#000000;stroke-width:1;" width="122.0283" x="658.7319" y="51"/><text fill="#000000" font-family="Verdana" font-size="14" lengthAdjust="spacing" textLength="108.0283" x="665.7319" y="70.9951">ForecastEngine</text></g><g class="participant participant-tail" data-entity-uid="part5" data-qualified-name="Engine" id="part5-tail"><rect fill="#FFFFFF" height="30.2969" rx="2.5" ry="2.5" style="stroke:#000000;stroke-width:1;" width="122.0283" x="658.7319" y="884.75"/><text fill="#000000" font-family="Verdana" font-size="14" lengthAdjust="spacing" textLength="108.0283" x="665.7319" y="904.7451">ForecastEngine</text></g><g class="participant participant-head" data-entity-uid="part6" data-qualified-name="DB" id="part6-head"><text fill="#000000" font-family="Verdana" font-size="14" lengthAdjust="spacing" textLength="70.5332" x="890.04" y="78.9951">SQLite DB</text><path d="M910.3066,30 C910.3066,20 928.3066,20 928.3066,20 C928.3066,20 946.3066,20 946.3066,30 L946.3066,56 C946.3066,66 928.3066,66 928.3066,66 C928.3066,66 910.3066,66 910.3066,56 L910.3066,30" fill="#FFFFFF" style="stroke:#000000;stroke-width:1;"/><path d="M910.3066,30 C910.3066,40 928.3066,40 928.3066,40 C928.3066,40 946.3066,40 946.3066,30" fill="none" style="stroke:#000000;stroke-width:1;"/></g><g class="participant participant-tail" data-entity-uid="part6" data-qualified-name="DB" id="part6-tail"><text fill="#000000" font-family="Verdana" font-size="14" lengthAdjust="spacing" textLength="70.5332" x="890.04" y="897.7451">SQLite DB</text><path d="M910.3066,911.0469 C910.3066,901.0469 928.3066,901.0469 928.3066,901.0469 C928.3066,901.0469 946.3066,901.0469 946.3066,911.0469 L946.3066,937.0469 C946.3066,947.0469 928.3066,947.0469 928.3066,947.0469 C928.3066,947.0469 910.3066,947.0469 910.3066,937.0469 L910.3066,911.0469" fill="#FFFFFF" style="stroke:#000000;stroke-width:1;"/><path d="M910.3066,911.0469 C910.3066,921.0469 928.3066,921.0469 928.3066,921.0469 C928.3066,921.0469 946.3066,921.0469 946.3066,911.0469" fill="none" style="stroke:#000000;stroke-width:1;"/></g><g><title>Browser</title><rect fill="#FFFFFF" height="754.3203" style="stroke:#000000;stroke-width:1;" width="10" x="187.6479" y="113.4297"/></g><g><title>Flask App</title><rect fill="#FFFFFF" height="87.3984" style="stroke:#000000;stroke-width:1;" width="10" x="423.6938" y="142.5625"/></g><g><title>Flask App</title><rect fill="#FFFFFF" height="462.9922" style="stroke:#000000;stroke-width:1;" width="10" x="423.6938" y="259.0938"/></g><g><title>Flask App</title><rect fill="#FFFFFF" height="87.3984" style="stroke:#000000;stroke-width:1;" width="10" x="423.6938" y="751.2188"/></g><g><title>WeatherAPI</title><rect fill="#FFFFFF" height="29.1328" style="stroke:#000000;stroke-width:1;" width="10" x="542.5132" y="317.3594"/></g><g><title>WeatherAPI</title><rect fill="#FFFFFF" height="29.1328" style="stroke:#000000;stroke-width:1;" width="10" x="542.5132" y="375.625"/></g><g><title>WeatherAPI</title><rect fill="#FFFFFF" height="29.1328" style="stroke:#000000;stroke-width:1;" width="10" x="542.5132" y="433.8906"/></g><g><title>ForecastEngine</title><rect fill="#FFFFFF" height="288.1953" style="stroke:#000000;stroke-width:1;" width="10" x="714.7461" y="288.2266"/></g><g><title>SQLite DB</title><rect fill="#FFFFFF" height="29.1328" style="stroke:#000000;stroke-width:1;" width="10" x="923.3066" y="171.6953"/></g><g><title>SQLite DB</title><rect fill="#FFFFFF" height="29.1328" style="stroke:#000000;stroke-width:1;" width="10" x="923.3066" y="605.5547"/></g><g><title>SQLite DB</title><rect fill="#FFFFFF" height="29.1328" style="stroke:#000000;stroke-width:1;" width="10" x="923.3066" y="663.8203"/></g><g><title>SQLite DB</title><rect fill="#FFFFFF" height="29.1328" style="stroke:#000000;stroke-width:1;" width="10" x="923.3066" y="780.3516"/></g><g class="message" data-entity-1="part1" data-entity-2="part2" id="msg1"><polygon fill="#000000" points="175.6479,109.4297,185.6479,113.4297,175.6479,117.4297,179.6479,113.4297" style="stroke:#000000;stroke-width:1;"/><line style="stroke:#000000;stroke-width:1;" x1="28.9551" x2="181.6479" y1="113.4297" y2="113.4297"/><text fill="#000000" font-family="Verdana" font-size="13" lengthAdjust="spacing" textLength="139.6929" x="35.9551" y="108.3638">Enter location &amp; days</text></g><g class="message" data-entity-1="part2" data-entity-2="part3" id="msg2"><polygon fill="#000000" points="411.6938,138.5625,421.6938,142.5625,411.6938,146.5625,415.6938,142.5625" style="stroke:#000000;stroke-width:1;"/><line style="stroke:#000000;stroke-width:1;" x1="197.6479" x2="417.6938" y1="142.5625" y2="142.5625"/><text fill="#000000" font-family="Verdana" font-size="13" lengthAdjust="spacing" textLength="95.6338" x="204.6479" y="137.4966">POST /forecast</text></g><g class="message" data-entity-1="part3" data-entity-2="part6" id="msg3"><polygon fill="#000000" points="911.3066,167.6953,921.3066,171.6953,911.3066,175.6953,915.3066,171.6953" style="stroke:#000000;stroke-width:1;"/><line style="stroke:#000000;stroke-width:1;" x1="433.6938" x2="917.3066" y1="171.6953" y2="171.6953"/><text fill="#000000" font-family="Verdana" font-size="13" lengthAdjust="spacing" textLength="156.5015" x="440.6938" y="166.6294">Create WeatherRequest</text></g><g class="message" data-entity-1="part6" data-entity-2="part3" id="msg4"><polygon fill="#000000" points="444.6938,196.8281,434.6938,200.8281,444.6938,204.8281,440.6938,200.8281" style="stroke:#000000;stroke-width:1;"/><line style="stroke:#000000;stroke-width:1;stroke-dasharray:2,2;" x1="438.6938" x2="927.3066" y1="200.8281" y2="200.8281"/><text fill="#000000" font-family="Verdana" font-size="13" lengthAdjust="spacing" textLength="68.0659" x="450.6938" y="195.7622">request_id</text></g><g class="message" data-entity-1="part3" data-entity-2="part2" id="msg5"><polygon fill="#000000" points="208.6479,225.9609,198.6479,229.9609,208.6479,233.9609,204.6479,229.9609" style="stroke:#000000;stroke-width:1;"/><line style="stroke:#000000;stroke-width:1;stroke-dasharray:2,2;" x1="202.6479" x2="427.6938" y1="229.9609" y2="229.9609"/><text fill="#000000" font-family="Verdana" font-size="13" lengthAdjust="spacing" textLength="128.064" x="214.6479" y="224.895">Redirect to /loading</text></g><g class="message" data-entity-1="part2" data-entity-2="part3" id="msg6"><polygon fill="#000000" points="411.6938,255.0938,421.6938,259.0938,411.6938,263.0938,415.6938,259.0938" style="stroke:#000000;stroke-width:1;"/><line style="stroke:#000000;stroke-width:1;" x1="197.6479" x2="417.6938" y1="259.0938" y2="259.0938"/><text fill="#000000" font-family="Verdana" font-size="13" lengthAdjust="spacing" textLength="125.8042" x="204.6479" y="254.0278">POST /process/{id}</text></g><g class="message" data-entity-1="part3" data-entity-2="part5" id="msg7"><polygon fill="#000000" points="702.7461,284.2266,712.7461,288.2266,702.7461,292.2266,706.7461,288.2266" style="stroke:#000000;stroke-width:1;"/><line style="stroke:#000000;stroke-width:1;" x1="433.6938" x2="708.7461" y1="288.2266" y2="288.2266"/><text fill="#000000" font-family="Verdana" font-size="13" lengthAdjust="spacing" textLength="204.8706" x="440.6938" y="283.1606">generate_forecast(query, days)</text></g><g class="message" data-entity-1="part5" data-entity-2="part4" id="msg8"><polygon fill="#000000" points="563.5132,313.3594,553.5132,317.3594,563.5132,321.3594,559.5132,317.3594" style="stroke:#000000;stroke-width:1;"/><line style="stroke:#000000;stroke-width:1;" x1="557.5132" x2="713.7461" y1="317.3594" y2="317.3594"/><text fill="#000000" font-family="Verdana" font-size="13" lengthAdjust="spacing" textLength="112.8613" x="569.5132" y="312.2935">GET /current.json</text></g><g class="message" data-entity-1="part4" data-entity-2="part5" id="msg9"><polygon fill="#000000" points="702.7461,342.4922,712.7461,346.4922,702.7461,350.4922,706.7461,346.4922" style="stroke:#000000;stroke-width:1;"/><line style="stroke:#000000;stroke-width:1;stroke-dasharray:2,2;" x1="547.5132" x2="708.7461" y1="346.4922" y2="346.4922"/><text fill="#000000" font-family="Verdana" font-size="13" lengthAdjust="spacing" textLength="138.2329" x="554.5132" y="341.4263">current weather data</text></g><g class="message" data-entity-1="part5" data-entity-2="part4" id="msg10"><polygon fill="#000000" points="563.5132,371.625,553.5132,375.625,563.5132,379.625,559.5132,375.625" style="stroke:#000000;stroke-width:1;"/><line style="stroke:#000000;stroke-width:1;" x1="557.5132" x2="713.7461" y1="375.625" y2="375.625"/><text fill="#000000" font-family="Verdana" font-size="13" lengthAdjust="spacing" textLength="118.3076" x="569.5132" y="370.5591">GET /forecast.json</text></g><g class="message" data-entity-1="part4" data-entity-2="part5" id="msg11"><polygon fill="#000000" points="702.7461,400.7578,712.7461,404.7578,702.7461,408.7578,706.7461,404.7578" style="stroke:#000000;stroke-width:1;"/><line style="stroke:#000000;stroke-width:1;stroke-dasharray:2,2;" x1="547.5132" x2="708.7461" y1="404.7578" y2="404.7578"/><text fill="#000000" font-family="Verdana" font-size="13" lengthAdjust="spacing" textLength="86.271" x="554.5132" y="399.6919">forecast data</text></g><g class="message" data-entity-1="part5" data-entity-2="part4" id="msg12"><polygon fill="#000000" points="563.5132,429.8906,553.5132,433.8906,563.5132,437.8906,559.5132,433.8906" style="stroke:#000000;stroke-width:1;"/><line style="stroke:#000000;stroke-width:1;" x1="557.5132" x2="713.7461" y1="433.8906" y2="433.8906"/><text fill="#000000" font-family="Verdana" font-size="13" lengthAdjust="spacing" textLength="140.4038" x="569.5132" y="428.8247">GET /history.json (x7)</text></g><g class="message" data-entity-1="part4" data-entity-2="part5" id="msg13"><polygon fill="#000000" points="702.7461,459.0234,712.7461,463.0234,702.7461,467.0234,706.7461,463.0234" style="stroke:#000000;stroke-width:1;"/><line style="stroke:#000000;stroke-width:1;stroke-dasharray:2,2;" x1="547.5132" x2="708.7461" y1="463.0234" y2="463.0234"/><text fill="#000000" font-family="Verdana" font-size="13" lengthAdjust="spacing" textLength="92.771" x="554.5132" y="457.9575">historical data</text></g><g class="message" data-entity-1="part5" data-entity-2="part5" id="msg14"><line style="stroke:#000000;stroke-width:1;" x1="724.7461" x2="766.7461" y1="492.1563" y2="492.1563"/><line style="stroke:#000000;stroke-width:1;" x1="766.7461" x2="766.7461" y1="492.1563" y2="505.1563"/><line style="stroke:#000000;stroke-width:1;" x1="725.7461" x2="766.7461" y1="505.1563" y2="505.1563"/><polygon fill="#000000" points="735.7461,501.1563,725.7461,505.1563,735.7461,509.1563,731.7461,505.1563" style="stroke:#000000;stroke-width:1;"/><text fill="#000000" font-family="Verdana" font-size="13" lengthAdjust="spacing" textLength="111.6553" x="731.7461" y="487.0903">analyze_history()</text></g><g class="message" data-entity-1="part5" data-entity-2="part5" id="msg15"><line style="stroke:#000000;stroke-width:1;" x1="724.7461" x2="766.7461" y1="534.2891" y2="534.2891"/><line style="stroke:#000000;stroke-width:1;" x1="766.7461" x2="766.7461" y1="534.2891" y2="547.2891"/><line style="stroke:#000000;stroke-width:1;" x1="725.7461" x2="766.7461" y1="547.2891" y2="547.2891"/><polygon fill="#000000" points="735.7461,543.2891,725.7461,547.2891,735.7461,551.2891,731.7461,547.2891" style="stroke:#000000;stroke-width:1;"/><text fill="#000000" font-family="Verdana" font-size="13" lengthAdjust="spacing" textLength="174.5605" x="731.7461" y="529.2231">apply_trend_adjustments()</text></g><g class="message" data-entity-1="part5" data-entity-2="part3" id="msg16"><polygon fill="#000000" points="444.6938,572.4219,434.6938,576.4219,444.6938,580.4219,440.6938,576.4219" style="stroke:#000000;stroke-width:1;"/><line style="stroke:#000000;stroke-width:1;stroke-dasharray:2,2;" x1="438.6938" x2="718.7461" y1="576.4219" y2="576.4219"/><text fill="#000000" font-family="Verdana" font-size="13" lengthAdjust="spacing" textLength="96.4209" x="450.6938" y="571.356">forecast_result</text></g><g class="message" data-entity-1="part3" data-entity-2="part6" id="msg17"><polygon fill="#000000" points="911.3066,601.5547,921.3066,605.5547,911.3066,609.5547,915.3066,605.5547" style="stroke:#000000;stroke-width:1;"/><line style="stroke:#000000;stroke-width:1;" x1="433.6938" x2="917.3066" y1="605.5547" y2="605.5547"/><text fill="#000000" font-family="Verdana" font-size="13" lengthAdjust="spacing" textLength="132.5518" x="440.6938" y="600.4888">Save ForecastResult</text></g><g class="message" data-entity-1="part6" data-entity-2="part3" id="msg18"><polygon fill="#000000" points="444.6938,630.6875,434.6938,634.6875,444.6938,638.6875,440.6938,634.6875" style="stroke:#000000;stroke-width:1;"/><line style="stroke:#000000;stroke-width:1;stroke-dasharray:2,2;" x1="438.6938" x2="927.3066" y1="634.6875" y2="634.6875"/><text fill="#000000" font-family="Verdana" font-size="13" lengthAdjust="spacing" textLength="55.4277" x="450.6938" y="629.6216">result_id</text></g><g class="message" data-entity-1="part3" data-entity-2="part6" id="msg19"><polygon fill="#000000" points="911.3066,659.8203,921.3066,663.8203,911.3066,667.8203,915.3066,663.8203" style="stroke:#000000;stroke-width:1;"/><line style="stroke:#000000;stroke-width:1;" x1="433.6938" x2="917.3066" y1="663.8203" y2="663.8203"/><text fill="#000000" font-family="Verdana" font-size="13" lengthAdjust="spacing" textLength="144.9932" x="440.6938" y="658.7544">Update request status</text></g><g class="message" data-entity-1="part6" data-entity-2="part3" id="msg20"><polygon fill="#000000" points="444.6938,688.9531,434.6938,692.9531,444.6938,696.9531,440.6938,692.9531" style="stroke:#000000;stroke-width:1;"/><line style="stroke:#000000;stroke-width:1;stroke-dasharray:2,2;" x1="438.6938" x2="927.3066" y1="692.9531" y2="692.9531"/><text fill="#000000" font-family="Verdana" font-size="13" lengthAdjust="spacing" textLength="18.7573" x="450.6938" y="687.8872">OK</text></g><g class="message" data-entity-1="part3" data-entity-2="part2" id="msg21"><polygon fill="#000000" points="208.6479,718.0859,198.6479,722.0859,208.6479,726.0859,204.6479,722.0859" style="stroke:#000000;stroke-width:1;"/><line style="stroke:#000000;stroke-width:1;stroke-dasharray:2,2;" x1="202.6479" x2="427.6938" y1="722.0859" y2="722.0859"/><text fill="#000000" font-family="Verdana" font-size="13" lengthAdjust="spacing" textLength="202.0459" x="214.6479" y="717.02">JSON {redirect: /forecast/{id}}</text></g><g class="message" data-entity-1="part2" data-entity-2="part3" id="msg22"><polygon fill="#000000" points="411.6938,747.2188,421.6938,751.2188,411.6938,755.2188,415.6938,751.2188" style="stroke:#000000;stroke-width:1;"/><line style="stroke:#000000;stroke-width:1;" x1="197.6479" x2="417.6938" y1="751.2188" y2="751.2188"/><text fill="#000000" font-family="Verdana" font-size="13" lengthAdjust="spacing" textLength="120.3833" x="204.6479" y="746.1528">GET /forecast/{id}</text></g><g class="message" data-entity-1="part3" data-entity-2="part6" id="msg23"><polygon fill="#000000" points="911.3066,776.3516,921.3066,780.3516,911.3066,784.3516,915.3066,780.3516" style="stroke:#000000;stroke-width:1;"/><line style="stroke:#000000;stroke-width:1;" x1="433.6938" x2="917.3066" y1="780.3516" y2="780.3516"/><text fill="#000000" font-family="Verdana" font-size="13" lengthAdjust="spacing" textLength="123.811" x="440.6938" y="775.2856">Get ForecastResult</text></g><g class="message" data-entity-1="part6" data-entity-2="part3" id="msg24"><polygon fill="#000000" points="444.6938,805.4844,434.6938,809.4844,444.6938,813.4844,440.6938,809.4844" style="stroke:#000000;stroke-width:1;"/><line style="stroke:#000000;stroke-width:1;stroke-dasharray:2,2;" x1="438.6938" x2="927.3066" y1="809.4844" y2="809.4844"/><text fill="#000000" font-family="Verdana" font-size="13" lengthAdjust="spacing" textLength="70.478" x="450.6938" y="804.4185">result data</text></g><g class="message" data-entity-1="part3" data-entity-2="part2" id="msg25"><polygon fill="#000000" points="208.6479,834.6172,198.6479,838.6172,208.6479,842.6172,204.6479,838.6172" style="stroke:#000000;stroke-width:1;"/><line style="stroke:#000000;stroke-width:1;stroke-dasharray:2,2;" x1="202.6479" x2="427.6938" y1="838.6172" y2="838.6172"/><text fill="#000000" font-family="Verdana" font-size="13" lengthAdjust="spacing" textLength="137.5981" x="214.6479" y="833.5513">Render forecast.html</text></g><g class="message" data-entity-1="part2" data-entity-2="part1" id="msg26"><polygon fill="#000000" points="39.9551,863.75,29.9551,867.75,39.9551,871.75,35.9551,867.75" style="stroke:#000000;stroke-width:1;"/><line style="stroke:#000000;stroke-width:1;stroke-dasharray:2,2;" x1="33.9551" x2="191.6479" y1="867.75" y2="867.75"/><text fill="#000000" font-family="Verdana" font-size="13" lengthAdjust="spacing" textLength="104.9077" x="45.9551" y="862.6841">Display forecast</text></g><!--SRC=[bLHDRzD04BtlhnXoG8b4oH791wGQbueFaP8GSRG6xv9iSTPcTzDYglxtpdx5JcdIS8ZisE_Dl3VprY_iMcm4j3LAnHXMjj6mD4Ap5hMLbMnHMSXrS_lusUXzZUONdBVj2D20_xSF-2wGYklpgmyUGTT71HejAZJsGgsa4XuJRXb7Yp_G21WjldwMLa2H-zT5pfWJ1sTlawQCE9QUr4s5LZOANWB7pZWdyWQ9chIpUEEuNcm6LxF5DvZ-Z39wIl32Wa625ta6xxHmhwAdkVYz5KCAAIjoEEjhwu0e9MTS366fxD32N7198YpO1gPrWrogrP0M1HroqEgc4iPCxoI_F-mYp3Q3bL124w1CniUaL7Ul_DmcFJ_kWeMhgq0RpE3oWZfMMws5ig-lJQDwXjim_Rotr2qYuJOC3jngXzOSvyaMITq9FHBqzE9hQIZedQyDupzl9iSR1BYii7wkHMAWmhhxAyhOQ3nv2jEsTLTQ6WylaLzlZTtGf0nXT-1-qybZgONPrdOe8IrgBwyBlA48HD8yS8wbrG4EXpNKNBRSFO_H1cFHRisHghDF9sJ_usBs1UvqF05PltWVv_kJZi5UO9uv1ix8fR3_Evj_5d_mA2jEsdRfNTjDVSm3SPUUM4X37-5knnoI8le1]--></g></svg>