<svg xmlns="http://www.w3.org/2000/svg" xmlns:xlink="http://www.w3.org/1999/xlink" contentStyleType="text/css" data-diagram-type="ACTIVITY" height="552px" preserveAspectRatio="none" style="width:331px;height:552px;background:#FFFFFF;" version="1.1" viewBox="0 0 331 552" width="331px" zoomAndPan="magnify"><defs/><g><ellipse cx="169.7783" cy="15" fill="#FFFFFF" rx="10" ry="10" style="stroke:#000000;stroke-width:1;"/><rect fill="#FFFFFF" height="47.9375" rx="12.5" ry="12.5" style="stroke:#000000;stroke-width:1;" width="144.4063" x="97.5752" y="45"/><text fill="#000000" font-family="Verdana" font-size="12" lengthAdjust="spacing" textLength="124.4063" x="107.5752" y="66.1387">User Enters Location</text><text fill="#000000" font-family="Verdana" font-size="12" lengthAdjust="spacing" textLength="97.7813" x="107.5752" y="80.1074">or Uploads JSON</text><rect fill="#FFFFFF" height="33.9688" rx="12.5" ry="12.5" style="stroke:#000000;stroke-width:1;" width="104.1758" x="117.6904" y="112.9375"/><text fill="#000000" font-family="Verdana" font-size="12" lengthAdjust="spacing" textLength="84.1758" x="127.6904" y="134.0762">Validate Input</text><polygon fill="#FFFFFF" points="153.179,166.9063,186.3777,166.9063,198.3777,178.9063,186.3777,190.9063,153.179,190.9063,141.179,178.9063,153.179,166.9063" style="stroke:#000000;stroke-width:1;"/><text fill="#000000" font-family="Verdana" font-size="11" lengthAdjust="spacing" textLength="33.1987" x="153.179" y="182.7144">Valid?</text><text fill="#000000" font-family="Verdana" font-size="11" lengthAdjust="spacing" textLength="19.0083" x="122.1707" y="176.312">yes</text><text fill="#000000" font-family="Verdana" font-size="11" lengthAdjust="spacing" textLength="13.7017" x="198.3777" y="176.312">no</text><rect fill="#FFFFFF" height="33.9688" rx="12.5" ry="12.5" style="stroke:#000000;stroke-width:1;" width="157.5957" x="6" y="200.9063"/><text fill="#000000" font-family="Verdana" font-size="12" lengthAdjust="spacing" textLength="137.5957" x="16" y="222.0449">Fetch Current Weather</text><rect fill="#FFFFFF" height="33.9688" rx="12.5" ry="12.5" style="stroke:#000000;stroke-width:1;" width="145.6836" x="11.9561" y="254.875"/><text fill="#000000" font-family="Verdana" font-size="12" lengthAdjust="spacing" textLength="125.6836" x="21.9561" y="276.0137">Fetch Historical Data</text><rect fill="#FFFFFF" height="33.9688" rx="12.5" ry="12.5" style="stroke:#000000;stroke-width:1;" width="112.2207" x="28.6875" y="308.8438"/><text fill="#000000" font-family="Verdana" font-size="12" lengthAdjust="spacing" textLength="92.2207" x="38.6875" y="329.9824">Analyze Trends</text><rect fill="#FFFFFF" height="33.9688" rx="12.5" ry="12.5" style="stroke:#000000;stroke-width:1;" width="131.3281" x="19.1338" y="362.8125"/><text fill="#000000" font-family="Verdana" font-size="12" lengthAdjust="spacing" textLength="111.3281" x="29.1338" y="383.9512">Generate Forecast</text><rect fill="#FFFFFF" height="33.9688" rx="12.5" ry="12.5" style="stroke:#000000;stroke-width:1;" width="135.7051" x="16.9453" y="416.7813"/><text fill="#000000" font-family="Verdana" font-size="12" lengthAdjust="spacing" textLength="115.7051" x="26.9453" y="437.9199">Store Results in DB</text><rect fill="#FFFFFF" height="33.9688" rx="12.5" ry="12.5" style="stroke:#000000;stroke-width:1;" width="119.5156" x="25.04" y="470.75"/><text fill="#000000" font-family="Verdana" font-size="12" lengthAdjust="spacing" textLength="99.5156" x="35.04" y="491.8887">Display Forecast</text><ellipse cx="84.7979" cy="535.7188" fill="none" rx="11" ry="11" style="stroke:#000000;stroke-width:1;"/><ellipse cx="84.7979" cy="535.7188" fill="#FFFFFF" rx="6" ry="6" style="stroke:#000000;stroke-width:1;"/><rect fill="#FFFFFF" height="33.9688" rx="12.5" ry="12.5" style="stroke:#000000;stroke-width:1;" width="142.3262" x="183.5957" y="200.9063"/><text fill="#000000" font-family="Verdana" font-size="12" lengthAdjust="spacing" textLength="122.3262" x="193.5957" y="222.0449">Show Error Message</text><rect fill="#FFFFFF" height="33.9688" rx="12.5" ry="12.5" style="stroke:#000000;stroke-width:1;" width="111.3184" x="199.0996" y="254.875"/><text fill="#000000" font-family="Verdana" font-size="12" lengthAdjust="spacing" textLength="91.3184" x="209.0996" y="276.0137">Return to Input</text><ellipse cx="254.7588" cy="319.8438" fill="none" rx="11" ry="11" style="stroke:#000000;stroke-width:1;"/><ellipse cx="254.7588" cy="319.8438" fill="#FFFFFF" rx="6" ry="6" style="stroke:#000000;stroke-width:1;"/><line style="stroke:#000000;stroke-width:1;" x1="169.7783" x2="169.7783" y1="25" y2="45"/><polygon fill="#000000" points="165.7783,35,169.7783,45,173.7783,35,169.7783,39" style="stroke:#000000;stroke-width:1;"/><line style="stroke:#000000;stroke-width:1;" x1="169.7783" x2="169.7783" y1="92.9375" y2="112.9375"/><polygon fill="#000000" points="165.7783,102.9375,169.7783,112.9375,173.7783,102.9375,169.7783,106.9375" style="stroke:#000000;stroke-width:1;"/><line style="stroke:#000000;stroke-width:1;" x1="84.7979" x2="84.7979" y1="234.875" y2="254.875"/><polygon fill="#000000" points="80.7979,244.875,84.7979,254.875,88.7979,244.875,84.7979,248.875" style="stroke:#000000;stroke-width:1;"/><line style="stroke:#000000;stroke-width:1;" x1="84.7979" x2="84.7979" y1="288.8438" y2="308.8438"/><polygon fill="#000000" points="80.7979,298.8438,84.7979,308.8438,88.7979,298.8438,84.7979,302.8438" style="stroke:#000000;stroke-width:1;"/><line style="stroke:#000000;stroke-width:1;" x1="84.7979" x2="84.7979" y1="342.8125" y2="362.8125"/><polygon fill="#000000" points="80.7979,352.8125,84.7979,362.8125,88.7979,352.8125,84.7979,356.8125" style="stroke:#000000;stroke-width:1;"/><line style="stroke:#000000;stroke-width:1;" x1="84.7979" x2="84.7979" y1="396.7813" y2="416.7813"/><polygon fill="#000000" points="80.7979,406.7813,84.7979,416.7813,88.7979,406.7813,84.7979,410.7813" style="stroke:#000000;stroke-width:1;"/><line style="stroke:#000000;stroke-width:1;" x1="84.7979" x2="84.7979" y1="450.75" y2="470.75"/><polygon fill="#000000" points="80.7979,460.75,84.7979,470.75,88.7979,460.75,84.7979,464.75" style="stroke:#000000;stroke-width:1;"/><line style="stroke:#000000;stroke-width:1;" x1="84.7979" x2="84.7979" y1="504.7188" y2="524.7188"/><polygon fill="#000000" points="80.7979,514.7188,84.7979,524.7188,88.7979,514.7188,84.7979,518.7188" style="stroke:#000000;stroke-width:1;"/><line style="stroke:#000000;stroke-width:1;" x1="254.7588" x2="254.7588" y1="234.875" y2="254.875"/><polygon fill="#000000" points="250.7588,244.875,254.7588,254.875,258.7588,244.875,254.7588,248.875" style="stroke:#000000;stroke-width:1;"/><line style="stroke:#000000;stroke-width:1;" x1="254.7588" x2="254.7588" y1="288.8438" y2="308.8438"/><polygon fill="#000000" points="250.7588,298.8438,254.7588,308.8438,258.7588,298.8438,254.7588,302.8438" style="stroke:#000000;stroke-width:1;"/><line style="stroke:#000000;stroke-width:1;" x1="141.179" x2="84.7979" y1="178.9063" y2="178.9063"/><line style="stroke:#000000;stroke-width:1;" x1="84.7979" x2="84.7979" y1="178.9063" y2="200.9063"/><polygon fill="#000000" points="80.7979,190.9063,84.7979,200.9063,88.7979,190.9063,84.7979,194.9063" style="stroke:#000000;stroke-width:1;"/><line style="stroke:#000000;stroke-width:1;" x1="198.3777" x2="254.7588" y1="178.9063" y2="178.9063"/><line style="stroke:#000000;stroke-width:1;" x1="254.7588" x2="254.7588" y1="178.9063" y2="200.9063"/><polygon fill="#000000" points="250.7588,190.9063,254.7588,200.9063,258.7588,190.9063,254.7588,194.9063" style="stroke:#000000;stroke-width:1;"/><line style="stroke:#000000;stroke-width:1;" x1="169.7783" x2="169.7783" y1="146.9063" y2="166.9063"/><polygon fill="#000000" points="165.7783,156.9063,169.7783,166.9063,173.7783,156.9063,169.7783,160.9063" style="stroke:#000000;stroke-width:1;"/><!--SRC=[NK_BJiD03BplLvXR-Wlj0G5fAOY7r50uMycKhBHu8ziH2b_FWXQ1y76UdZCVyGQQ4aS9mPpLGrWV3KfRSQZHNUxPOvQGbOvJoZmOtNQF3vkYU-OK1tRGZKop5oIUgFa6prTKaeMQ1ROAL6wzW_SZNSsg4ASNS17evY-tZ-PPOy-9MdQkt8LmMZv0JyKtM0Ml8T2lvbrMz6nUyQu4W0wmERbH56elAzD6AokNVuPIE0Ka0pMIwwFTcDzfgre6tyECNr4Z3l1PXJp_xFrDa26UFW40]--></g></svg>