<svg xmlns="http://www.w3.org/2000/svg" xmlns:xlink="http://www.w3.org/1999/xlink" width="323" height="1269" contentStyleType="text/css" data-diagram-type="STATE" style="width:323px;height:1269px;background:#fff" preserveAspectRatio="none" version="1.1" viewBox="0 0 323 1269" zoomAndPan="magnify"><g><path fill="#FFF" d="M108.99,108 L254.4763,108 A12.5,12.5 0 0 1 266.9763,120.5 L266.9763,134.2969 L96.49,134.2969 L96.49,120.5 A12.5,12.5 0 0 1 108.99,108"/><path fill="#FFF" d="M96.49,134.2969 L266.9763,134.2969 L266.9763,248.7969 A12.5,12.5 0 0 1 254.4763,261.2969 L108.99,261.2969 A12.5,12.5 0 0 1 96.49,248.7969 L96.49,134.2969"/><rect style="stroke:#000;stroke-width:1" width="170.486" height="153.297" x="96.49" y="108" fill="none" rx="12.5" ry="12.5"/><line style="stroke:#000;stroke-width:1" x1="96.49" x2="266.976" y1="134.297" y2="134.297"/><text x="153.877" y="125.995" fill="#000" font-family="Verdana" font-size="14" lengthAdjust="spacing" textLength="55.713">Created</text><ellipse cx="183.23" cy="155.297" fill="#FFF" rx="10" ry="10" style="stroke:#000;stroke-width:1"/><g><rect style="stroke:#000;stroke-width:1" width="149.486" height="50" x="108.49" y="201.297" fill="#FFF" rx="12.5" ry="12.5"/><line style="stroke:#000;stroke-width:1" x1="108.49" x2="257.976" y1="227.594" y2="227.594"/><text x="118.49" y="219.292" fill="#000" font-family="Verdana" font-size="14" lengthAdjust="spacing" textLength="129.486">WaitingForProcess</text></g><g id="lnk15" class="link" data-entity-1="ent0013" data-entity-2="ent0014" data-link-type="dependency" data-source-line="16"><path id="*start*Created-to-WaitingForProcess" fill="none" d="M183.23,165.6069 C183.23,174.6469 183.23,182.7869 183.23,195.0269" style="stroke:#000;stroke-width:1"/><polygon fill="#000" points="183.23 201.027 187.23 192.027 183.23 196.027 179.23 192.027 183.23 201.027" style="stroke:#000;stroke-width:1"/></g><path fill="#FFF" d="M24.5,338.3 L178.9688,338.3 A12.5,12.5 0 0 1 191.4688,350.8 L191.4688,364.5969 L12,364.5969 L12,350.8 A12.5,12.5 0 0 1 24.5,338.3"/><path fill="#FFF" d="M12,364.5969 L191.4688,364.5969 L191.4688,795.0969 A12.5,12.5 0 0 1 178.9688,807.5969 L24.5,807.5969 A12.5,12.5 0 0 1 12,795.0969 L12,364.5969"/><rect style="stroke:#000;stroke-width:1" width="179.469" height="469.297" x="12" y="338.3" fill="none" rx="12.5" ry="12.5"/><line style="stroke:#000;stroke-width:1" x1="12" x2="191.469" y1="364.597" y2="364.597"/><text x="64.079" y="356.295" fill="#000" font-family="Verdana" font-size="14" lengthAdjust="spacing" textLength="75.311">Processing</text><ellipse cx="103.23" cy="385.597" fill="#FFF" rx="10" ry="10" style="stroke:#000;stroke-width:1"/><g><rect style="stroke:#000;stroke-width:1" width="113.803" height="50" x="46.33" y="431.597" fill="#FFF" rx="12.5" ry="12.5"/><line style="stroke:#000;stroke-width:1" x1="46.33" x2="160.133" y1="457.894" y2="457.894"/><text x="56.33" y="449.592" fill="#000" font-family="Verdana" font-size="14" lengthAdjust="spacing" textLength="93.803">FetchingData</text></g><g><rect style="stroke:#000;stroke-width:1" width="136.177" height="50" x="35.15" y="517.597" fill="#FFF" rx="12.5" ry="12.5"/><line style="stroke:#000;stroke-width:1" x1="35.15" x2="171.327" y1="543.894" y2="543.894"/><text x="45.15" y="535.592" fill="#000" font-family="Verdana" font-size="14" lengthAdjust="spacing" textLength="116.177">AnalyzingTrends</text></g><g><rect style="stroke:#000;stroke-width:1" width="158.469" height="50" x="24" y="603.597" fill="#FFF" rx="12.5" ry="12.5"/><line style="stroke:#000;stroke-width:1" x1="24" x2="182.469" y1="629.894" y2="629.894"/><text x="34" y="621.592" fill="#000" font-family="Verdana" font-size="14" lengthAdjust="spacing" textLength="138.469">GeneratingForecast</text></g><g><rect style="stroke:#000;stroke-width:1" width="118.581" height="50" x="43.94" y="689.597" fill="#FFF" rx="12.5" ry="12.5"/><line style="stroke:#000;stroke-width:1" x1="43.94" x2="162.521" y1="715.894" y2="715.894"/><text x="53.94" y="707.592" fill="#000" font-family="Verdana" font-size="14" lengthAdjust="spacing" textLength="98.581">SavingResults</text></g><ellipse cx="103.23" cy="786.597" fill="none" rx="11" ry="11" style="stroke:#000;stroke-width:1"/><ellipse cx="103.23" cy="786.597" fill="#FFF" rx="6" ry="6" style="stroke:#000;stroke-width:1"/><g id="lnk18" class="link" data-entity-1="ent0016" data-entity-2="ent0017" data-link-type="dependency" data-source-line="20"><path id="*start*Processing-to-FetchingData" fill="none" d="M103.23,395.9069 C103.23,404.9469 103.23,413.0869 103.23,425.3269" style="stroke:#000;stroke-width:1"/><polygon fill="#000" points="103.23 431.327 107.23 422.327 103.23 426.327 99.23 422.327 103.23 431.327" style="stroke:#000;stroke-width:1"/></g><g id="lnk20" class="link" data-entity-1="ent0017" data-entity-2="ent0019" data-link-type="dependency" data-source-line="21"><path id="FetchingData-to-AnalyzingTrends" fill="none" d="M103.23,481.8969 C103.23,493.0369 103.23,500.2169 103.23,511.3569" style="stroke:#000;stroke-width:1"/><polygon fill="#000" points="103.23 517.357 107.23 508.357 103.23 512.357 99.23 508.357 103.23 517.357" style="stroke:#000;stroke-width:1"/></g><g id="lnk22" class="link" data-entity-1="ent0019" data-entity-2="ent0021" data-link-type="dependency" data-source-line="22"><path id="AnalyzingTrends-to-GeneratingForecast" fill="none" d="M103.23,567.8969 C103.23,579.0369 103.23,586.2169 103.23,597.3569" style="stroke:#000;stroke-width:1"/><polygon fill="#000" points="103.23 603.357 107.23 594.357 103.23 598.357 99.23 594.357 103.23 603.357" style="stroke:#000;stroke-width:1"/></g><g id="lnk24" class="link" data-entity-1="ent0021" data-entity-2="ent0023" data-link-type="dependency" data-source-line="23"><path id="GeneratingForecast-to-SavingResults" fill="none" d="M103.23,653.8969 C103.23,665.0369 103.23,672.2169 103.23,683.3569" style="stroke:#000;stroke-width:1"/><polygon fill="#000" points="103.23 689.357 107.23 680.357 103.23 684.357 99.23 680.357 103.23 689.357" style="stroke:#000;stroke-width:1"/></g><g id="lnk26" class="link" data-entity-1="ent0023" data-entity-2="ent0025" data-link-type="dependency" data-source-line="24"><path id="SavingResults-to-*end*Processing" fill="none" d="M103.23,740.0769 C103.23,752.0669 103.23,759.8669 103.23,769.0969" style="stroke:#000;stroke-width:1"/><polygon fill="#000" points="103.23 775.097 107.23 766.097 103.23 770.097 99.23 766.097 103.23 775.097" style="stroke:#000;stroke-width:1"/></g><path fill="#FFF" d="M31.52,884.59 L171.9546,884.59 A12.5,12.5 0 0 1 184.4546,897.09 L184.4546,910.8869 L19.02,910.8869 L19.02,897.09 A12.5,12.5 0 0 1 31.52,884.59"/><path fill="#FFF" d="M19.02,910.8869 L184.4546,910.8869 L184.4546,1025.3869 A12.5,12.5 0 0 1 171.9546,1037.8869 L31.52,1037.8869 A12.5,12.5 0 0 1 19.02,1025.3869 L19.02,910.8869"/><rect style="stroke:#000;stroke-width:1" width="165.435" height="153.297" x="19.02" y="884.59" fill="none" rx="12.5" ry="12.5"/><line style="stroke:#000;stroke-width:1" x1="19.02" x2="184.455" y1="910.887" y2="910.887"/><text x="63.559" y="902.585" fill="#000" font-family="Verdana" font-size="14" lengthAdjust="spacing" textLength="76.357">Completed</text><ellipse cx="103.24" cy="931.887" fill="#FFF" rx="10" ry="10" style="stroke:#000;stroke-width:1"/><g><rect style="stroke:#000;stroke-width:1" width="144.435" height="50" x="31.02" y="977.887" fill="#FFF" rx="12.5" ry="12.5"/><line style="stroke:#000;stroke-width:1" x1="31.02" x2="175.455" y1="1004.184" y2="1004.184"/><text x="41.02" y="995.882" fill="#000" font-family="Verdana" font-size="14" lengthAdjust="spacing" textLength="124.435">DisplayingResults</text></g><g id="lnk29" class="link" data-entity-1="ent0027" data-entity-2="ent0028" data-link-type="dependency" data-source-line="28"><path id="*start*Completed-to-DisplayingResults" fill="none" d="M103.24,942.1969 C103.24,951.2369 103.24,959.3769 103.24,971.6169" style="stroke:#000;stroke-width:1"/><polygon fill="#000" points="103.24 977.617 107.24 968.617 103.24 972.617 99.24 968.617 103.24 977.617" style="stroke:#000;stroke-width:1"/></g><ellipse cx="181.73" cy="21" fill="#FFF" rx="10" ry="10" style="stroke:#000;stroke-width:1"/><g><rect style="stroke:#000;stroke-width:1" width="61.911" height="50" x="224.78" y="936.24" fill="#FFF" rx="12.5" ry="12.5"/><line style="stroke:#000;stroke-width:1" x1="224.78" x2="286.691" y1="962.537" y2="962.537"/><text x="234.78" y="954.235" fill="#000" font-family="Verdana" font-size="14" lengthAdjust="spacing" textLength="41.911">Failed</text></g><g><rect style="stroke:#000;stroke-width:1" width="81.578" height="50" x="60.95" y="1114.89" fill="#FFF" rx="12.5" ry="12.5"/><line style="stroke:#000;stroke-width:1" x1="60.95" x2="142.528" y1="1141.187" y2="1141.187"/><text x="70.95" y="1132.885" fill="#000" font-family="Verdana" font-size="14" lengthAdjust="spacing" textLength="61.578">Archived</text></g><ellipse cx="101.73" cy="1252.89" fill="none" rx="11" ry="11" style="stroke:#000;stroke-width:1"/><ellipse cx="101.73" cy="1252.89" fill="#FFF" rx="6" ry="6" style="stroke:#000;stroke-width:1"/><g id="lnk3" class="link" data-entity-1="ent0002" data-entity-2="ent0002" data-link-type="dependency" data-source-line="3"><path id="*start*-to-Created" fill="none" d="M181.73,31.15 C181.73,46.18 181.73,71.45 181.73,101.78" style="stroke:#000;stroke-width:1"/><polygon fill="#000" points="181.73 107.78 185.73 98.78 181.73 102.78 177.73 98.78 181.73 107.78" style="stroke:#000;stroke-width:1"/><text x="182.73" y="74.067" fill="#000" font-family="Verdana" font-size="13" lengthAdjust="spacing" textLength="123.506">Request submitted</text></g><g id="lnk4" class="link" data-entity-1="ent0002" data-entity-2="ent0003" data-link-type="dependency" data-source-line="5"><path id="Created-to-Processing" fill="none" d="M138.69,261.57 C134.41,271.35 130.6,281.4 127.73,291.3 C123.37,306.33 120.8382,316.1109 117.7382,332.0109" style="stroke:#000;stroke-width:1"/><polygon fill="#000" points="116.59 337.9 122.238 329.832 117.547 332.992 114.386 328.301 116.59 337.9" style="stroke:#000;stroke-width:1"/><text x="128.73" y="304.367" fill="#000" font-family="Verdana" font-size="13" lengthAdjust="spacing" textLength="106.234">Start processing</text></g><g id="lnk5" class="link" data-entity-1="ent0003" data-entity-2="ent0004" data-link-type="dependency" data-source-line="6"><path id="Processing-to-Completed" fill="none" d="M101.73,807.84 C101.73,835.29 101.73,855.59 101.73,878.38" style="stroke:#000;stroke-width:1"/><polygon fill="#000" points="101.73 884.38 105.73 875.38 101.73 879.38 97.73 875.38 101.73 884.38" style="stroke:#000;stroke-width:1"/><text x="102.73" y="850.657" fill="#000" font-family="Verdana" font-size="13" lengthAdjust="spacing" textLength="52.33">Success</text></g><g id="lnk7" class="link" data-entity-1="ent0003" data-entity-2="ent0006" data-link-type="dependency" data-source-line="7"><path id="Processing-to-Failed" fill="none" d="M182.52,808 C188.8,823.86 195.23,839.51 201.73,854.59 C214.06,883.15 227.7579,909.5121 239.2779,930.6421" style="stroke:#000;stroke-width:1"/><polygon fill="#000" points="242.15 935.91 241.354 926.093 239.757 931.52 234.33 929.923 242.15 935.91" style="stroke:#000;stroke-width:1"/><text x="202.73" y="850.657" fill="#000" font-family="Verdana" font-size="13" lengthAdjust="spacing" textLength="32.202">Error</text></g><g id="lnk8" class="link" data-entity-1="ent0006" data-entity-2="ent0002" data-link-type="dependency" data-source-line="9"><path id="Failed-to-Created" fill="none" d="M259.21,935.96 C271.04,847.55 305.42,535.28 239.73,291.3 C237.07,281.4 235.7662,276.8897 231.4062,267.2197" style="stroke:#000;stroke-width:1"/><polygon fill="#000" points="228.94 261.75 228.993 271.599 230.995 266.308 236.286 268.31 228.94 261.75" style="stroke:#000;stroke-width:1"/><text x="280.73" y="577.507" fill="#000" font-family="Verdana" font-size="13" lengthAdjust="spacing" textLength="35.166">Retry</text></g><g id="lnk10" class="link" data-entity-1="ent0004" data-entity-2="ent0009" data-link-type="dependency" data-source-line="11"><path id="Completed-to-Archived" fill="none" d="M101.73,1038.18 C101.73,1065.67 101.73,1088.8 101.73,1108.62" style="stroke:#000;stroke-width:1"/><polygon fill="#000" points="101.73 1114.62 105.73 1105.62 101.73 1109.62 97.73 1105.62 101.73 1114.62" style="stroke:#000;stroke-width:1"/><text x="102.73" y="1080.957" fill="#000" font-family="Verdana" font-size="13" lengthAdjust="spacing" textLength="87.401">After 30 days</text></g><g id="lnk12" class="link" data-entity-1="ent0009" data-entity-2="ent0011" data-link-type="dependency" data-source-line="13"><path id="Archived-to-*end*" fill="none" d="M101.73,1165.25 C101.73,1189.12 101.73,1218.35 101.73,1235.6" style="stroke:#000;stroke-width:1"/><polygon fill="#000" points="101.73 1241.6 105.73 1232.6 101.73 1236.6 97.73 1232.6 101.73 1241.6" style="stroke:#000;stroke-width:1"/><text x="102.73" y="1207.957" fill="#000" font-family="Verdana" font-size="13" lengthAdjust="spacing" textLength="53.384">Cleanup</text></g></g></svg>