<svg xmlns="http://www.w3.org/2000/svg" width="1920" height="1080" viewBox="0 0 1920 1080"><defs><linearGradient id="bg" x1="0%" x2="100%" y1="0%" y2="100%"><stop offset="0%" style="stop-color:#0a0a1a"/><stop offset="50%" style="stop-color:#1a1a3a"/><stop offset="100%" style="stop-color:#2d1b4e"/></linearGradient><radialGradient id="glow1" cx="20%" cy="30%" r="40%"><stop offset="0%" style="stop-color:#667eea;stop-opacity:.3"/><stop offset="100%" style="stop-color:#667eea;stop-opacity:0"/></radialGradient><radialGradient id="glow2" cx="80%" cy="70%" r="35%"><stop offset="0%" style="stop-color:#00d4ff;stop-opacity:.2"/><stop offset="100%" style="stop-color:#00d4ff;stop-opacity:0"/></radialGradient></defs><rect width="1920" height="1080" fill="url(#bg)"/><rect width="1920" height="1080" fill="url(#glow1)"/><rect width="1920" height="1080" fill="url(#glow2)"/><circle cx="100" cy="80" r="1" fill="#fff" opacity=".8"/><circle cx="250" cy="150" r="1.5" fill="#fff" opacity=".6"/><circle cx="400" cy="60" r="1" fill="#fff" opacity=".9"/><circle cx="550" cy="200" r="1.2" fill="#fff" opacity=".7"/><circle cx="700" cy="100" r="1" fill="#fff" opacity=".5"/><circle cx="850" cy="180" r="1.8" fill="#fff" opacity=".8"/><circle cx="1000" cy="50" r="1" fill="#fff" opacity=".6"/><circle cx="1150" cy="220" r="1.3" fill="#fff" opacity=".9"/><circle cx="1300" cy="90" r="1" fill="#fff" opacity=".7"/><circle cx="1450" cy="160" r="1.5" fill="#fff" opacity=".5"/><circle cx="1600" cy="70" r="1" fill="#fff" opacity=".8"/><circle cx="1750" cy="200" r="1.2" fill="#fff" opacity=".6"/><circle cx="1850" cy="120" r="1" fill="#fff" opacity=".9"/><circle cx="180" cy="350" r="1.4" fill="#fff" opacity=".7"/><circle cx="320" cy="420" r="1" fill="#fff" opacity=".5"/><circle cx="480" cy="380" r="1.6" fill="#fff" opacity=".8"/><circle cx="620" cy="450" r="1" fill="#fff" opacity=".6"/><circle cx="780" cy="320" r="1.2" fill="#fff" opacity=".9"/><circle cx="920" cy="480" r="1" fill="#fff" opacity=".7"/><circle cx="1080" cy="350" r="1.5" fill="#fff" opacity=".5"/><circle cx="1220" cy="420" r="1" fill="#fff" opacity=".8"/><circle cx="1380" cy="380" r="1.3" fill="#fff" opacity=".6"/><circle cx="1520" cy="450" r="1" fill="#fff" opacity=".9"/><circle cx="1680" cy="320" r="1.7" fill="#fff" opacity=".7"/><circle cx="1820" cy="400" r="1" fill="#fff" opacity=".5"/><circle cx="150" cy="600" r="1" fill="#fff" opacity=".8"/><circle cx="280" cy="700" r="1.4" fill="#fff" opacity=".6"/><circle cx="450" cy="650" r="1" fill="#fff" opacity=".9"/><circle cx="580" cy="750" r="1.2" fill="#fff" opacity=".7"/><circle cx="750" cy="580" r="1" fill="#fff" opacity=".5"/><circle cx="880" cy="720" r="1.6" fill="#fff" opacity=".8"/><circle cx="1050" cy="620" r="1" fill="#fff" opacity=".6"/><circle cx="1180" cy="780" r="1.3" fill="#fff" opacity=".9"/><circle cx="1350" cy="680" r="1" fill="#fff" opacity=".7"/><circle cx="1480" cy="740" r="1.5" fill="#fff" opacity=".5"/><circle cx="1650" cy="600" r="1" fill="#fff" opacity=".8"/><circle cx="1780" cy="700" r="1.2" fill="#fff" opacity=".6"/><circle cx="120" cy="900" r="1.4" fill="#fff" opacity=".9"/><circle cx="350" cy="950" r="1" fill="#fff" opacity=".7"/><circle cx="520" cy="880" r="1.5" fill="#fff" opacity=".5"/><circle cx="680" cy="1000" r="1" fill="#fff" opacity=".8"/><circle cx="820" cy="920" r="1.2" fill="#fff" opacity=".6"/><circle cx="980" cy="980" r="1" fill="#fff" opacity=".9"/><circle cx="1120" cy="860" r="1.6" fill="#fff" opacity=".7"/><circle cx="1280" cy="1020" r="1" fill="#fff" opacity=".5"/><circle cx="1420" cy="900" r="1.3" fill="#fff" opacity=".8"/><circle cx="1580" cy="960" r="1" fill="#fff" opacity=".6"/><circle cx="1720" cy="880" r="1.5" fill="#fff" opacity=".9"/><circle cx="1880" cy="1000" r="1" fill="#fff" opacity=".7"/></svg>