<svg xmlns="http://www.w3.org/2000/svg" xmlns:xlink="http://www.w3.org/1999/xlink" contentStyleType="text/css" data-diagram-type="CLASS" height="558px" preserveAspectRatio="none" style="width:648px;height:558px;background:#FFFFFF;" version="1.1" viewBox="0 0 648 558" width="648px" zoomAndPan="magnify"><defs/><g><!--class WeatherRequest--><g class="entity" data-qualified-name="WeatherRequest" data-source-line="4" id="ent0002"><rect fill="#FFFFFF" height="206.9688" rx="2.5" ry="2.5" style="stroke:#000000;stroke-width:1;" width="273.8945" x="19.18" y="344.86"/><ellipse cx="93.7454" cy="358.86" fill="#FFFFFF" rx="9" ry="9" style="stroke:#000000;stroke-width:1;"/><path d="M96.7142,364.5006 Q96.1361,364.7975 95.4954,364.9381 Q94.8548,365.0944 94.1517,365.0944 Q91.6517,365.0944 90.3236,363.4538 Q89.0111,361.7975 89.0111,358.6725 Q89.0111,355.5475 90.3236,353.8913 Q91.6517,352.235 94.1517,352.235 Q94.8548,352.235 95.4954,352.3913 Q96.1517,352.5475 96.7142,352.8444 L96.7142,355.5631 Q96.0892,354.985 95.4954,354.7194 Q94.9017,354.4381 94.2767,354.4381 Q92.9329,354.4381 92.2454,355.5163 Q91.5579,356.5788 91.5579,358.6725 Q91.5579,360.7663 92.2454,361.8444 Q92.9329,362.9069 94.2767,362.9069 Q94.9017,362.9069 95.4954,362.6413 Q96.0892,362.36 96.7142,361.7819 L96.7142,364.5006 Z " fill="#000000"/><text fill="#000000" font-family="Verdana" font-size="14" lengthAdjust="spacing" textLength="117.2637" x="111.2454" y="363.7067">WeatherRequest</text><line style="stroke:#000000;stroke-width:1;" x1="20.18" x2="292.0745" y1="372.86" y2="372.86"/><g data-visibility-modifier="PRIVATE_FIELD"><rect fill="none" height="6" style="stroke:#000000;stroke-width:1;" width="6" x="27.18" y="383.5084"/></g><text fill="#000000" font-family="Verdana" font-size="14" lengthAdjust="spacing" textLength="40.1953" x="37.18" y="389.8551">id: int</text><g data-visibility-modifier="PRIVATE_FIELD"><rect fill="none" height="6" style="stroke:#000000;stroke-width:1;" width="6" x="27.18" y="399.8053"/></g><text fill="#000000" font-family="Verdana" font-size="14" lengthAdjust="spacing" textLength="68.1201" x="37.18" y="406.152">query: str</text><g data-visibility-modifier="PRIVATE_FIELD"><rect fill="none" height="6" style="stroke:#000000;stroke-width:1;" width="6" x="27.18" y="416.1022"/></g><text fill="#000000" font-family="Verdana" font-size="14" lengthAdjust="spacing" textLength="106.3945" x="37.18" y="422.4489">query_type: str</text><g data-visibility-modifier="PRIVATE_FIELD"><rect fill="none" height="6" style="stroke:#000000;stroke-width:1;" width="6" x="27.18" y="432.3991"/></g><text fill="#000000" font-family="Verdana" font-size="14" lengthAdjust="spacing" textLength="108.1719" x="37.18" y="438.7457">range_days: int</text><g data-visibility-modifier="PRIVATE_FIELD"><rect fill="none" height="6" style="stroke:#000000;stroke-width:1;" width="6" x="27.18" y="448.6959"/></g><text fill="#000000" font-family="Verdana" font-size="14" lengthAdjust="spacing" textLength="147.0684" x="37.18" y="455.0426">created_at: datetime</text><g data-visibility-modifier="PRIVATE_FIELD"><rect fill="none" height="6" style="stroke:#000000;stroke-width:1;" width="6" x="27.18" y="464.9928"/></g><text fill="#000000" font-family="Verdana" font-size="14" lengthAdjust="spacing" textLength="70.7246" x="37.18" y="471.3395">status: str</text><line style="stroke:#000000;stroke-width:1;" x1="20.18" x2="292.0745" y1="478.6413" y2="478.6413"/><g data-visibility-modifier="PUBLIC_METHOD"><ellipse cx="30.18" cy="492.2897" fill="#FFFFFF" rx="3" ry="3" style="stroke:#000000;stroke-width:1;"/></g><text fill="#000000" font-family="Verdana" font-size="14" lengthAdjust="spacing" textLength="43.6953" x="37.18" y="495.6364">save()</text><g data-visibility-modifier="PUBLIC_METHOD"><ellipse cx="30.18" cy="508.5866" fill="#FFFFFF" rx="3" ry="3" style="stroke:#000000;stroke-width:1;"/></g><text fill="#000000" font-family="Verdana" font-size="14" lengthAdjust="spacing" textLength="153.2891" x="37.18" y="511.9332">update_status(status)</text><g data-visibility-modifier="PUBLIC_METHOD"><ellipse cx="30.18" cy="524.8834" fill="#FFFFFF" rx="3" ry="3" style="stroke:#000000;stroke-width:1;"/></g><text fill="#000000" font-family="Verdana" font-size="14" lengthAdjust="spacing" text-decoration="underline" textLength="217.0684" x="37.18" y="528.2301">get_by_id(id): WeatherRequest</text><g data-visibility-modifier="PUBLIC_METHOD"><ellipse cx="30.18" cy="541.1803" fill="#FFFFFF" rx="3" ry="3" style="stroke:#000000;stroke-width:1;"/></g><text fill="#000000" font-family="Verdana" font-size="14" lengthAdjust="spacing" text-decoration="underline" textLength="249.8945" x="37.18" y="544.527">get_all(limit): List[WeatherRequest]</text></g><!--class WeatherDataFetcher--><g class="entity" data-qualified-name="WeatherDataFetcher" data-source-line="18" id="ent0003"><rect fill="#FFFFFF" height="125.4844" rx="2.5" ry="2.5" style="stroke:#000000;stroke-width:1;" width="313.1328" x="328.57" y="385.6"/><ellipse cx="408.2419" cy="399.6" fill="#FFFFFF" rx="9" ry="9" style="stroke:#000000;stroke-width:1;"/><path d="M411.2106,405.2406 Q410.6325,405.5375 409.9919,405.6781 Q409.3513,405.8344 408.6481,405.8344 Q406.1481,405.8344 404.82,404.1938 Q403.5075,402.5375 403.5075,399.4125 Q403.5075,396.2875 404.82,394.6313 Q406.1481,392.975 408.6481,392.975 Q409.3513,392.975 409.9919,393.1313 Q410.6481,393.2875 411.2106,393.5844 L411.2106,396.3031 Q410.5856,395.725 409.9919,395.4594 Q409.3981,395.1781 408.7731,395.1781 Q407.4294,395.1781 406.7419,396.2563 Q406.0544,397.3188 406.0544,399.4125 Q406.0544,401.5063 406.7419,402.5844 Q407.4294,403.6469 408.7731,403.6469 Q409.3981,403.6469 409.9919,403.3813 Q410.5856,403.1 411.2106,402.5219 L411.2106,405.2406 Z " fill="#000000"/><text fill="#000000" font-family="Verdana" font-size="14" lengthAdjust="spacing" textLength="146.2891" x="425.7419" y="404.4467">WeatherDataFetcher</text><line style="stroke:#000000;stroke-width:1;" x1="329.57" x2="640.7028" y1="413.6" y2="413.6"/><g data-visibility-modifier="PRIVATE_FIELD"><rect fill="none" height="6" style="stroke:#000000;stroke-width:1;" width="6" x="336.57" y="424.2484"/></g><text fill="#000000" font-family="Verdana" font-size="14" lengthAdjust="spacing" textLength="81.0674" x="346.57" y="430.5951">api_key: str</text><line style="stroke:#000000;stroke-width:1;" x1="329.57" x2="640.7028" y1="437.8969" y2="437.8969"/><g data-visibility-modifier="PUBLIC_METHOD"><ellipse cx="339.57" cy="451.5453" fill="#FFFFFF" rx="3" ry="3" style="stroke:#000000;stroke-width:1;"/></g><text fill="#000000" font-family="Verdana" font-size="14" lengthAdjust="spacing" textLength="167.5146" x="346.57" y="454.892">get_current(query): dict</text><g data-visibility-modifier="PUBLIC_METHOD"><ellipse cx="339.57" cy="467.8422" fill="#FFFFFF" rx="3" ry="3" style="stroke:#000000;stroke-width:1;"/></g><text fill="#000000" font-family="Verdana" font-size="14" lengthAdjust="spacing" textLength="215.3252" x="346.57" y="471.1889">get_forecast(query, days): dict</text><g data-visibility-modifier="PUBLIC_METHOD"><ellipse cx="339.57" cy="484.1391" fill="#FFFFFF" rx="3" ry="3" style="stroke:#000000;stroke-width:1;"/></g><text fill="#000000" font-family="Verdana" font-size="14" lengthAdjust="spacing" textLength="205.0781" x="346.57" y="487.4857">get_history(query, date): dict</text><g data-visibility-modifier="PUBLIC_METHOD"><ellipse cx="339.57" cy="500.4359" fill="#FFFFFF" rx="3" ry="3" style="stroke:#000000;stroke-width:1;"/></g><text fill="#000000" font-family="Verdana" font-size="14" lengthAdjust="spacing" textLength="289.1328" x="346.57" y="503.7826">get_history_range(query, days_back): list</text></g><!--class ForecastEngine--><g class="entity" data-qualified-name="ForecastEngine" data-source-line="27" id="ent0004"><rect fill="#FFFFFF" height="141.7813" rx="2.5" ry="2.5" style="stroke:#000000;stroke-width:1;" width="295.6533" x="337.31" y="69.04"/><ellipse cx="427.3725" cy="83.04" fill="#FFFFFF" rx="9" ry="9" style="stroke:#000000;stroke-width:1;"/><path d="M430.3413,88.6806 Q429.7631,88.9775 429.1225,89.1181 Q428.4819,89.2744 427.7788,89.2744 Q425.2788,89.2744 423.9506,87.6338 Q422.6381,85.9775 422.6381,82.8525 Q422.6381,79.7275 423.9506,78.0713 Q425.2788,76.415 427.7788,76.415 Q428.4819,76.415 429.1225,76.5713 Q429.7788,76.7275 430.3413,77.0244 L430.3413,79.7431 Q429.7163,79.165 429.1225,78.8994 Q428.5288,78.6181 427.9038,78.6181 Q426.56,78.6181 425.8725,79.6963 Q425.185,80.7588 425.185,82.8525 Q425.185,84.9463 425.8725,86.0244 Q426.56,87.0869 427.9038,87.0869 Q428.5288,87.0869 429.1225,86.8213 Q429.7163,86.54 430.3413,85.9619 L430.3413,88.6806 Z " fill="#000000"/><text fill="#000000" font-family="Verdana" font-size="14" lengthAdjust="spacing" textLength="108.0283" x="444.8725" y="87.8867">ForecastEngine</text><line style="stroke:#000000;stroke-width:1;" x1="338.31" x2="631.9633" y1="97.04" y2="97.04"/><g data-visibility-modifier="PRIVATE_FIELD"><rect fill="none" height="6" style="stroke:#000000;stroke-width:1;" width="6" x="345.31" y="107.6884"/></g><text fill="#000000" font-family="Verdana" font-size="14" lengthAdjust="spacing" textLength="205.4268" x="355.31" y="114.0351">fetcher: WeatherDataFetcher</text><line style="stroke:#000000;stroke-width:1;" x1="338.31" x2="631.9633" y1="121.3369" y2="121.3369"/><g data-visibility-modifier="PUBLIC_METHOD"><ellipse cx="348.31" cy="134.9853" fill="#FFFFFF" rx="3" ry="3" style="stroke:#000000;stroke-width:1;"/></g><text fill="#000000" font-family="Verdana" font-size="14" lengthAdjust="spacing" textLength="186.9082" x="355.31" y="138.332">analyze_history(data): dict</text><g data-visibility-modifier="PUBLIC_METHOD"><ellipse cx="348.31" cy="151.2822" fill="#FFFFFF" rx="3" ry="3" style="stroke:#000000;stroke-width:1;"/></g><text fill="#000000" font-family="Verdana" font-size="14" lengthAdjust="spacing" textLength="255.7598" x="355.31" y="154.6289">generate_forecast(query, days): dict</text><g data-visibility-modifier="PUBLIC_METHOD"><ellipse cx="348.31" cy="167.5791" fill="#FFFFFF" rx="3" ry="3" style="stroke:#000000;stroke-width:1;"/></g><text fill="#000000" font-family="Verdana" font-size="14" lengthAdjust="spacing" textLength="257.6191" x="355.31" y="170.9257">process_json_upload(json_data): dict</text><g data-visibility-modifier="PRIVATE_METHOD"><rect fill="#FFFFFF" height="6" style="stroke:#000000;stroke-width:1;" width="6" x="345.31" y="180.8759"/></g><text fill="#000000" font-family="Verdana" font-size="14" lengthAdjust="spacing" textLength="212.0029" x="355.31" y="187.2226">_calculate_trend(values): float</text><g data-visibility-modifier="PRIVATE_METHOD"><rect fill="#FFFFFF" height="6" style="stroke:#000000;stroke-width:1;" width="6" x="345.31" y="197.1728"/></g><text fill="#000000" font-family="Verdana" font-size="14" lengthAdjust="spacing" textLength="271.6533" x="355.31" y="203.5195">_moving_average(values, window): list</text></g><!--class ForecastResult--><g class="entity" data-qualified-name="ForecastResult" data-source-line="37" id="ent0005"><rect fill="#FFFFFF" height="255.8594" rx="2.5" ry="2.5" style="stroke:#000000;stroke-width:1;" width="288.2637" x="12" y="12"/><ellipse cx="100.415" cy="26" fill="#FFFFFF" rx="9" ry="9" style="stroke:#000000;stroke-width:1;"/><path d="M103.3838,31.6406 Q102.8057,31.9375 102.165,32.0781 Q101.5244,32.2344 100.8213,32.2344 Q98.3213,32.2344 96.9932,30.5938 Q95.6807,28.9375 95.6807,25.8125 Q95.6807,22.6875 96.9932,21.0313 Q98.3213,19.375 100.8213,19.375 Q101.5244,19.375 102.165,19.5313 Q102.8213,19.6875 103.3838,19.9844 L103.3838,22.7031 Q102.7588,22.125 102.165,21.8594 Q101.5713,21.5781 100.9463,21.5781 Q99.6025,21.5781 98.915,22.6563 Q98.2275,23.7188 98.2275,25.8125 Q98.2275,27.9063 98.915,28.9844 Q99.6025,30.0469 100.9463,30.0469 Q101.5713,30.0469 102.165,29.7813 Q102.7588,29.5 103.3838,28.9219 L103.3838,31.6406 Z " fill="#000000"/><text fill="#000000" font-family="Verdana" font-size="14" lengthAdjust="spacing" textLength="103.9336" x="117.915" y="30.8467">ForecastResult</text><line style="stroke:#000000;stroke-width:1;" x1="13" x2="299.2637" y1="40" y2="40"/><g data-visibility-modifier="PRIVATE_FIELD"><rect fill="none" height="6" style="stroke:#000000;stroke-width:1;" width="6" x="20" y="50.6484"/></g><text fill="#000000" font-family="Verdana" font-size="14" lengthAdjust="spacing" textLength="40.1953" x="30" y="56.9951">id: int</text><g data-visibility-modifier="PRIVATE_FIELD"><rect fill="none" height="6" style="stroke:#000000;stroke-width:1;" width="6" x="20" y="66.9453"/></g><text fill="#000000" font-family="Verdana" font-size="14" lengthAdjust="spacing" textLength="100.7207" x="30" y="73.292">request_id: int</text><g data-visibility-modifier="PRIVATE_FIELD"><rect fill="none" height="6" style="stroke:#000000;stroke-width:1;" width="6" x="20" y="83.2422"/></g><text fill="#000000" font-family="Verdana" font-size="14" lengthAdjust="spacing" textLength="129.958" x="30" y="89.5889">location_name: str</text><g data-visibility-modifier="PRIVATE_FIELD"><rect fill="none" height="6" style="stroke:#000000;stroke-width:1;" width="6" x="20" y="99.5391"/></g><text fill="#000000" font-family="Verdana" font-size="14" lengthAdjust="spacing" textLength="81.2451" x="30" y="105.8857">country: str</text><g data-visibility-modifier="PRIVATE_FIELD"><rect fill="none" height="6" style="stroke:#000000;stroke-width:1;" width="6" x="20" y="115.8359"/></g><text fill="#000000" font-family="Verdana" font-size="14" lengthAdjust="spacing" textLength="94.3291" x="30" y="122.1826">latitude: float</text><g data-visibility-modifier="PRIVATE_FIELD"><rect fill="none" height="6" style="stroke:#000000;stroke-width:1;" width="6" x="20" y="132.1328"/></g><text fill="#000000" font-family="Verdana" font-size="14" lengthAdjust="spacing" textLength="106.5859" x="30" y="138.4795">longitude: float</text><g data-visibility-modifier="PRIVATE_FIELD"><rect fill="none" height="6" style="stroke:#000000;stroke-width:1;" width="6" x="20" y="148.4297"/></g><text fill="#000000" font-family="Verdana" font-size="14" lengthAdjust="spacing" textLength="123.1631" x="30" y="154.7764">forecast_data: str</text><g data-visibility-modifier="PRIVATE_FIELD"><rect fill="none" height="6" style="stroke:#000000;stroke-width:1;" width="6" x="20" y="164.7266"/></g><text fill="#000000" font-family="Verdana" font-size="14" lengthAdjust="spacing" textLength="135.3037" x="30" y="171.0732">current_temp: float</text><g data-visibility-modifier="PRIVATE_FIELD"><rect fill="none" height="6" style="stroke:#000000;stroke-width:1;" width="6" x="20" y="181.0234"/></g><text fill="#000000" font-family="Verdana" font-size="14" lengthAdjust="spacing" textLength="160.501" x="30" y="187.3701">current_humidity: float</text><g data-visibility-modifier="PRIVATE_FIELD"><rect fill="none" height="6" style="stroke:#000000;stroke-width:1;" width="6" x="20" y="197.3203"/></g><text fill="#000000" font-family="Verdana" font-size="14" lengthAdjust="spacing" textLength="150.4932" x="30" y="203.667">current_condition: str</text><line style="stroke:#000000;stroke-width:1;" x1="13" x2="299.2637" y1="210.9688" y2="210.9688"/><g data-visibility-modifier="PUBLIC_METHOD"><ellipse cx="23" cy="224.6172" fill="#FFFFFF" rx="3" ry="3" style="stroke:#000000;stroke-width:1;"/></g><text fill="#000000" font-family="Verdana" font-size="14" lengthAdjust="spacing" textLength="43.6953" x="30" y="227.9639">save()</text><g data-visibility-modifier="PUBLIC_METHOD"><ellipse cx="23" cy="240.9141" fill="#FFFFFF" rx="3" ry="3" style="stroke:#000000;stroke-width:1;"/></g><text fill="#000000" font-family="Verdana" font-size="14" lengthAdjust="spacing" textLength="171.5" x="30" y="244.2607">get_forecast_data(): dict</text><g data-visibility-modifier="PUBLIC_METHOD"><ellipse cx="23" cy="257.2109" fill="#FFFFFF" rx="3" ry="3" style="stroke:#000000;stroke-width:1;"/></g><text fill="#000000" font-family="Verdana" font-size="14" lengthAdjust="spacing" text-decoration="underline" textLength="264.2637" x="30" y="260.5576">get_by_request_id(id): ForecastResult</text></g><!--link ForecastEngine to WeatherDataFetcher--><g class="link" data-entity-1="ent0004" data-entity-2="ent0003" data-link-type="dependency" data-source-line="54" id="lnk6"><path codeLine="54" d="M485.13,211.23 C485.13,263.71 485.13,328.75 485.13,379.17" fill="none" id="ForecastEngine-to-WeatherDataFetcher" style="stroke:#000000;stroke-width:1;"/><polygon fill="#000000" points="485.13,385.17,489.13,376.17,485.13,380.17,481.13,376.17,485.13,385.17" style="stroke:#000000;stroke-width:1;"/><text fill="#000000" font-family="Verdana" font-size="13" lengthAdjust="spacing" textLength="29.7832" x="486.13" y="310.9269">uses</text></g><!--link ForecastResult to WeatherRequest--><g class="link" data-entity-1="ent0005" data-entity-2="ent0002" data-link-type="dependency" data-source-line="55" id="lnk7"><path codeLine="55" d="M156.13,268.22 C156.13,293.7 156.13,314.17 156.13,338.7" fill="none" id="ForecastResult-to-WeatherRequest" style="stroke:#000000;stroke-width:1;"/><polygon fill="#000000" points="156.13,344.7,160.13,335.7,156.13,339.7,152.13,335.7,156.13,344.7" style="stroke:#000000;stroke-width:1;"/><text fill="#000000" font-family="Verdana" font-size="13" lengthAdjust="spacing" textLength="68.2627" x="157.13" y="310.9269">belongs to</text></g><!--SRC=[XLGzSzim3DtrAzXDlaH_G4EcrbEdB1bwEHvCmZOJYbH9q3urb_zUwCEsgCWNBoA11_3X0V0FEcA3ehLWN54KoaACuWM1pU4P_oQC93uAmRzA65qBusYwiIzqjOWKvWP9NOjpQm1tGAcXY_DW5VW9r1Ae5ffFP1gSN960Kfobg8RFWuXmmd8pNLBRXyaHN8wVY- -ZlnhrAGv8SjT9eqkZD_MYh3KmM5jQqnXYz6yJwKyUybfyBYJw2GHR9CN7gqpG6lcEtKe5_HCgXO2Eoa4jVaORHJFttWTK42V_e-Y5-uewCZSVkXk8y2v83XsOvvCxKE-CjmouLRITNlxb3iRXjPhzM5szKd5U73YmtJ-yScDIi2JbCFHT-xx8DdY5CSgtw9rChVMWo-6yp5e9gS2gPFkynChgyWIMcyMWFOTTKOq_6NUGF4C1M8uHz2ZEncb_lYl6CyPaxsr06AT2vbRh5GyKKtNGP9kWV7AKhmopDfGqvbojvnPyDLzK6pJ84eyZ9GcRDW-vU8wfCTfGj-vLth6JAN-tTFC17LYKUTUMYtSJQ5p0NDLUxSNGLTNJscRL8aMCnQ8fC_3bdweME-pLYuByVm00]--></g></svg>