<svg xmlns="http://www.w3.org/2000/svg" xmlns:xlink="http://www.w3.org/1999/xlink" width="967" height="967" contentStyleType="text/css" data-diagram-type="SEQUENCE" style="width:967px;height:967px;background:#fff" preserveAspectRatio="none" version="1.1" viewBox="0 0 967 967" zoomAndPan="magnify"><g><g><title>Browser</title><rect style="stroke:#000;stroke-width:1" width="10" height="754.32" x="187.648" y="113.43" fill="#FFF"/></g><g><title>Flask App</title><rect style="stroke:#000;stroke-width:1" width="10" height="87.398" x="423.694" y="142.563" fill="#FFF"/></g><g><title>Flask App</title><rect style="stroke:#000;stroke-width:1" width="10" height="462.992" x="423.694" y="259.094" fill="#FFF"/></g><g><title>Flask App</title><rect style="stroke:#000;stroke-width:1" width="10" height="87.398" x="423.694" y="751.219" fill="#FFF"/></g><g><title>WeatherAPI</title><rect style="stroke:#000;stroke-width:1" width="10" height="29.133" x="542.513" y="317.359" fill="#FFF"/></g><g><title>WeatherAPI</title><rect style="stroke:#000;stroke-width:1" width="10" height="29.133" x="542.513" y="375.625" fill="#FFF"/></g><g><title>WeatherAPI</title><rect style="stroke:#000;stroke-width:1" width="10" height="29.133" x="542.513" y="433.891" fill="#FFF"/></g><g><title>ForecastEngine</title><rect style="stroke:#000;stroke-width:1" width="10" height="288.195" x="714.746" y="288.227" fill="#FFF"/></g><g><title>SQLite DB</title><rect style="stroke:#000;stroke-width:1" width="10" height="29.133" x="923.307" y="171.695" fill="#FFF"/></g><g><title>SQLite DB</title><rect style="stroke:#000;stroke-width:1" width="10" height="29.133" x="923.307" y="605.555" fill="#FFF"/></g><g><title>SQLite DB</title><rect style="stroke:#000;stroke-width:1" width="10" height="29.133" x="923.307" y="663.82" fill="#FFF"/></g><g><title>SQLite DB</title><rect style="stroke:#000;stroke-width:1" width="10" height="29.133" x="923.307" y="780.352" fill="#FFF"/></g><g id="part1-lifeline" class="participant-lifeline" data-entity-uid="part1" data-qualified-name="User"><g><title>User</title><rect width="8" height="803.453" x="24.955" y="82.297" fill="#000" fill-opacity="0"/><line style="stroke:#000;stroke-width:1;stroke-dasharray:5,5" x1="28" x2="28" y1="82.297" y2="885.75"/></g></g><g id="part2-lifeline" class="participant-lifeline" data-entity-uid="part2" data-qualified-name="Browser"><g><title>Browser</title><rect width="8" height="803.453" x="188.648" y="82.297" fill="#000" fill-opacity="0"/><line style="stroke:#000;stroke-width:1;stroke-dasharray:5,5" x1="192.128" x2="192.128" y1="82.297" y2="885.75"/></g></g><g id="part3-lifeline" class="participant-lifeline" data-entity-uid="part3" data-qualified-name="Flask"><g><title>Flask App</title><rect width="8" height="803.453" x="424.694" y="82.297" fill="#000" fill-opacity="0"/><line style="stroke:#000;stroke-width:1;stroke-dasharray:5,5" x1="427.832" x2="427.832" y1="82.297" y2="885.75"/></g></g><g id="part4-lifeline" class="participant-lifeline" data-entity-uid="part4" data-qualified-name="API"><g><title>WeatherAPI</title><rect width="8" height="803.453" x="543.513" y="82.297" fill="#000" fill-opacity="0"/><line style="stroke:#000;stroke-width:1;stroke-dasharray:5,5" x1="546.556" x2="546.556" y1="82.297" y2="885.75"/></g></g><g id="part5-lifeline" class="participant-lifeline" data-entity-uid="part5" data-qualified-name="Engine"><g><title>ForecastEngine</title><rect width="8" height="803.453" x="715.746" y="82.297" fill="#000" fill-opacity="0"/><line style="stroke:#000;stroke-width:1;stroke-dasharray:5,5" x1="719.732" x2="719.732" y1="82.297" y2="885.75"/></g></g><g id="part6-lifeline" class="participant-lifeline" data-entity-uid="part6" data-qualified-name="DB"><g><title>SQLite DB</title><rect width="8" height="803.453" x="924.307" y="82.297" fill="#000" fill-opacity="0"/><line style="stroke:#000;stroke-width:1;stroke-dasharray:5,5" x1="928.04" x2="928.04" y1="82.297" y2="885.75"/></g></g><g id="part1-head" class="participant participant-head" data-entity-uid="part1" data-qualified-name="User"><text x="10" y="78.995" fill="#000" font-family="Verdana" font-size="14" lengthAdjust="spacing" textLength="31.91">User</text><ellipse cx="28.955" cy="14" fill="#FFF" rx="8" ry="8" style="stroke:#000;stroke-width:1"/><path fill="none" d="M28.9551,22 L28.9551,49 M15.9551,30 L41.9551,30 M28.9551,49 L15.9551,64 M28.9551,49 L41.9551,64" style="stroke:#000;stroke-width:1"/></g><g id="part1-tail" class="participant participant-tail" data-entity-uid="part1" data-qualified-name="User"><text x="10" y="897.745" fill="#000" font-family="Verdana" font-size="14" lengthAdjust="spacing" textLength="31.91">User</text><ellipse cx="28.955" cy="910.047" fill="#FFF" rx="8" ry="8" style="stroke:#000;stroke-width:1"/><path fill="none" d="M28.9551,918.0469 L28.9551,945.0469 M15.9551,926.0469 L41.9551,926.0469 M28.9551,945.0469 L15.9551,960.0469 M28.9551,945.0469 L41.9551,960.0469" style="stroke:#000;stroke-width:1"/></g><g id="part2-head" class="participant participant-head" data-entity-uid="part2" data-qualified-name="Browser"><rect style="stroke:#000;stroke-width:1" width="71.039" height="30.297" x="157.128" y="51" fill="#FFF" rx="2.5" ry="2.5"/><text x="164.128" y="70.995" fill="#000" font-family="Verdana" font-size="14" lengthAdjust="spacing" textLength="57.039">Browser</text></g><g id="part2-tail" class="participant participant-tail" data-entity-uid="part2" data-qualified-name="Browser"><rect style="stroke:#000;stroke-width:1" width="71.039" height="30.297" x="157.128" y="884.75" fill="#FFF" rx="2.5" ry="2.5"/><text x="164.128" y="904.745" fill="#000" font-family="Verdana" font-size="14" lengthAdjust="spacing" textLength="57.039">Browser</text></g><g id="part3-head" class="participant participant-head" data-entity-uid="part3" data-qualified-name="Flask"><rect style="stroke:#000;stroke-width:1" width="81.724" height="30.297" x="387.832" y="51" fill="#FFF" rx="2.5" ry="2.5"/><text x="394.832" y="70.995" fill="#000" font-family="Verdana" font-size="14" lengthAdjust="spacing" textLength="67.724">Flask App</text></g><g id="part3-tail" class="participant participant-tail" data-entity-uid="part3" data-qualified-name="Flask"><rect style="stroke:#000;stroke-width:1" width="81.724" height="30.297" x="387.832" y="884.75" fill="#FFF" rx="2.5" ry="2.5"/><text x="394.832" y="904.745" fill="#000" font-family="Verdana" font-size="14" lengthAdjust="spacing" textLength="67.724">Flask App</text></g><g id="part4-head" class="participant participant-head" data-entity-uid="part4" data-qualified-name="API"><rect style="stroke:#000;stroke-width:1" width="95.915" height="30.297" x="499.556" y="51" fill="#FFF" rx="2.5" ry="2.5"/><text x="506.556" y="70.995" fill="#000" font-family="Verdana" font-size="14" lengthAdjust="spacing" textLength="81.915">WeatherAPI</text></g><g id="part4-tail" class="participant participant-tail" data-entity-uid="part4" data-qualified-name="API"><rect style="stroke:#000;stroke-width:1" width="95.915" height="30.297" x="499.556" y="884.75" fill="#FFF" rx="2.5" ry="2.5"/><text x="506.556" y="904.745" fill="#000" font-family="Verdana" font-size="14" lengthAdjust="spacing" textLength="81.915">WeatherAPI</text></g><g id="part5-head" class="participant participant-head" data-entity-uid="part5" data-qualified-name="Engine"><rect style="stroke:#000;stroke-width:1" width="122.028" height="30.297" x="658.732" y="51" fill="#FFF" rx="2.5" ry="2.5"/><text x="665.732" y="70.995" fill="#000" font-family="Verdana" font-size="14" lengthAdjust="spacing" textLength="108.028">ForecastEngine</text></g><g id="part5-tail" class="participant participant-tail" data-entity-uid="part5" data-qualified-name="Engine"><rect style="stroke:#000;stroke-width:1" width="122.028" height="30.297" x="658.732" y="884.75" fill="#FFF" rx="2.5" ry="2.5"/><text x="665.732" y="904.745" fill="#000" font-family="Verdana" font-size="14" lengthAdjust="spacing" textLength="108.028">ForecastEngine</text></g><g id="part6-head" class="participant participant-head" data-entity-uid="part6" data-qualified-name="DB"><text x="890.04" y="78.995" fill="#000" font-family="Verdana" font-size="14" lengthAdjust="spacing" textLength="70.533">SQLite DB</text><path fill="#FFF" d="M910.3066,30 C910.3066,20 928.3066,20 928.3066,20 C928.3066,20 946.3066,20 946.3066,30 L946.3066,56 C946.3066,66 928.3066,66 928.3066,66 C928.3066,66 910.3066,66 910.3066,56 L910.3066,30" style="stroke:#000;stroke-width:1"/><path fill="none" d="M910.3066,30 C910.3066,40 928.3066,40 928.3066,40 C928.3066,40 946.3066,40 946.3066,30" style="stroke:#000;stroke-width:1"/></g><g id="part6-tail" class="participant participant-tail" data-entity-uid="part6" data-qualified-name="DB"><text x="890.04" y="897.745" fill="#000" font-family="Verdana" font-size="14" lengthAdjust="spacing" textLength="70.533">SQLite DB</text><path fill="#FFF" d="M910.3066,911.0469 C910.3066,901.0469 928.3066,901.0469 928.3066,901.0469 C928.3066,901.0469 946.3066,901.0469 946.3066,911.0469 L946.3066,937.0469 C946.3066,947.0469 928.3066,947.0469 928.3066,947.0469 C928.3066,947.0469 910.3066,947.0469 910.3066,937.0469 L910.3066,911.0469" style="stroke:#000;stroke-width:1"/><path fill="none" d="M910.3066,911.0469 C910.3066,921.0469 928.3066,921.0469 928.3066,921.0469 C928.3066,921.0469 946.3066,921.0469 946.3066,911.0469" style="stroke:#000;stroke-width:1"/></g><g><title>Browser</title><rect style="stroke:#000;stroke-width:1" width="10" height="754.32" x="187.648" y="113.43" fill="#FFF"/></g><g><title>Flask App</title><rect style="stroke:#000;stroke-width:1" width="10" height="87.398" x="423.694" y="142.563" fill="#FFF"/></g><g><title>Flask App</title><rect style="stroke:#000;stroke-width:1" width="10" height="462.992" x="423.694" y="259.094" fill="#FFF"/></g><g><title>Flask App</title><rect style="stroke:#000;stroke-width:1" width="10" height="87.398" x="423.694" y="751.219" fill="#FFF"/></g><g><title>WeatherAPI</title><rect style="stroke:#000;stroke-width:1" width="10" height="29.133" x="542.513" y="317.359" fill="#FFF"/></g><g><title>WeatherAPI</title><rect style="stroke:#000;stroke-width:1" width="10" height="29.133" x="542.513" y="375.625" fill="#FFF"/></g><g><title>WeatherAPI</title><rect style="stroke:#000;stroke-width:1" width="10" height="29.133" x="542.513" y="433.891" fill="#FFF"/></g><g><title>ForecastEngine</title><rect style="stroke:#000;stroke-width:1" width="10" height="288.195" x="714.746" y="288.227" fill="#FFF"/></g><g><title>SQLite DB</title><rect style="stroke:#000;stroke-width:1" width="10" height="29.133" x="923.307" y="171.695" fill="#FFF"/></g><g><title>SQLite DB</title><rect style="stroke:#000;stroke-width:1" width="10" height="29.133" x="923.307" y="605.555" fill="#FFF"/></g><g><title>SQLite DB</title><rect style="stroke:#000;stroke-width:1" width="10" height="29.133" x="923.307" y="663.82" fill="#FFF"/></g><g><title>SQLite DB</title><rect style="stroke:#000;stroke-width:1" width="10" height="29.133" x="923.307" y="780.352" fill="#FFF"/></g><g id="msg1" class="message" data-entity-1="part1" data-entity-2="part2"><polygon fill="#000" points="175.648 109.43 185.648 113.43 175.648 117.43 179.648 113.43" style="stroke:#000;stroke-width:1"/><line style="stroke:#000;stroke-width:1" x1="28.955" x2="181.648" y1="113.43" y2="113.43"/><text x="35.955" y="108.364" fill="#000" font-family="Verdana" font-size="13" lengthAdjust="spacing" textLength="139.693">Enter location &amp; days</text></g><g id="msg2" class="message" data-entity-1="part2" data-entity-2="part3"><polygon fill="#000" points="411.694 138.563 421.694 142.563 411.694 146.563 415.694 142.563" style="stroke:#000;stroke-width:1"/><line style="stroke:#000;stroke-width:1" x1="197.648" x2="417.694" y1="142.563" y2="142.563"/><text x="204.648" y="137.497" fill="#000" font-family="Verdana" font-size="13" lengthAdjust="spacing" textLength="95.634">POST /forecast</text></g><g id="msg3" class="message" data-entity-1="part3" data-entity-2="part6"><polygon fill="#000" points="911.307 167.695 921.307 171.695 911.307 175.695 915.307 171.695" style="stroke:#000;stroke-width:1"/><line style="stroke:#000;stroke-width:1" x1="433.694" x2="917.307" y1="171.695" y2="171.695"/><text x="440.694" y="166.629" fill="#000" font-family="Verdana" font-size="13" lengthAdjust="spacing" textLength="156.501">Create WeatherRequest</text></g><g id="msg4" class="message" data-entity-1="part6" data-entity-2="part3"><polygon fill="#000" points="444.694 196.828 434.694 200.828 444.694 204.828 440.694 200.828" style="stroke:#000;stroke-width:1"/><line style="stroke:#000;stroke-width:1;stroke-dasharray:2,2" x1="438.694" x2="927.307" y1="200.828" y2="200.828"/><text x="450.694" y="195.762" fill="#000" font-family="Verdana" font-size="13" lengthAdjust="spacing" textLength="68.066">request_id</text></g><g id="msg5" class="message" data-entity-1="part3" data-entity-2="part2"><polygon fill="#000" points="208.648 225.961 198.648 229.961 208.648 233.961 204.648 229.961" style="stroke:#000;stroke-width:1"/><line style="stroke:#000;stroke-width:1;stroke-dasharray:2,2" x1="202.648" x2="427.694" y1="229.961" y2="229.961"/><text x="214.648" y="224.895" fill="#000" font-family="Verdana" font-size="13" lengthAdjust="spacing" textLength="128.064">Redirect to /loading</text></g><g id="msg6" class="message" data-entity-1="part2" data-entity-2="part3"><polygon fill="#000" points="411.694 255.094 421.694 259.094 411.694 263.094 415.694 259.094" style="stroke:#000;stroke-width:1"/><line style="stroke:#000;stroke-width:1" x1="197.648" x2="417.694" y1="259.094" y2="259.094"/><text x="204.648" y="254.028" fill="#000" font-family="Verdana" font-size="13" lengthAdjust="spacing" textLength="125.804">POST /process/{id}</text></g><g id="msg7" class="message" data-entity-1="part3" data-entity-2="part5"><polygon fill="#000" points="702.746 284.227 712.746 288.227 702.746 292.227 706.746 288.227" style="stroke:#000;stroke-width:1"/><line style="stroke:#000;stroke-width:1" x1="433.694" x2="708.746" y1="288.227" y2="288.227"/><text x="440.694" y="283.161" fill="#000" font-family="Verdana" font-size="13" lengthAdjust="spacing" textLength="204.871">generate_forecast(query, days)</text></g><g id="msg8" class="message" data-entity-1="part5" data-entity-2="part4"><polygon fill="#000" points="563.513 313.359 553.513 317.359 563.513 321.359 559.513 317.359" style="stroke:#000;stroke-width:1"/><line style="stroke:#000;stroke-width:1" x1="557.513" x2="713.746" y1="317.359" y2="317.359"/><text x="569.513" y="312.293" fill="#000" font-family="Verdana" font-size="13" lengthAdjust="spacing" textLength="112.861">GET /current.json</text></g><g id="msg9" class="message" data-entity-1="part4" data-entity-2="part5"><polygon fill="#000" points="702.746 342.492 712.746 346.492 702.746 350.492 706.746 346.492" style="stroke:#000;stroke-width:1"/><line style="stroke:#000;stroke-width:1;stroke-dasharray:2,2" x1="547.513" x2="708.746" y1="346.492" y2="346.492"/><text x="554.513" y="341.426" fill="#000" font-family="Verdana" font-size="13" lengthAdjust="spacing" textLength="138.233">current weather data</text></g><g id="msg10" class="message" data-entity-1="part5" data-entity-2="part4"><polygon fill="#000" points="563.513 371.625 553.513 375.625 563.513 379.625 559.513 375.625" style="stroke:#000;stroke-width:1"/><line style="stroke:#000;stroke-width:1" x1="557.513" x2="713.746" y1="375.625" y2="375.625"/><text x="569.513" y="370.559" fill="#000" font-family="Verdana" font-size="13" lengthAdjust="spacing" textLength="118.308">GET /forecast.json</text></g><g id="msg11" class="message" data-entity-1="part4" data-entity-2="part5"><polygon fill="#000" points="702.746 400.758 712.746 404.758 702.746 408.758 706.746 404.758" style="stroke:#000;stroke-width:1"/><line style="stroke:#000;stroke-width:1;stroke-dasharray:2,2" x1="547.513" x2="708.746" y1="404.758" y2="404.758"/><text x="554.513" y="399.692" fill="#000" font-family="Verdana" font-size="13" lengthAdjust="spacing" textLength="86.271">forecast data</text></g><g id="msg12" class="message" data-entity-1="part5" data-entity-2="part4"><polygon fill="#000" points="563.513 429.891 553.513 433.891 563.513 437.891 559.513 433.891" style="stroke:#000;stroke-width:1"/><line style="stroke:#000;stroke-width:1" x1="557.513" x2="713.746" y1="433.891" y2="433.891"/><text x="569.513" y="428.825" fill="#000" font-family="Verdana" font-size="13" lengthAdjust="spacing" textLength="140.404">GET /history.json (x7)</text></g><g id="msg13" class="message" data-entity-1="part4" data-entity-2="part5"><polygon fill="#000" points="702.746 459.023 712.746 463.023 702.746 467.023 706.746 463.023" style="stroke:#000;stroke-width:1"/><line style="stroke:#000;stroke-width:1;stroke-dasharray:2,2" x1="547.513" x2="708.746" y1="463.023" y2="463.023"/><text x="554.513" y="457.957" fill="#000" font-family="Verdana" font-size="13" lengthAdjust="spacing" textLength="92.771">historical data</text></g><g id="msg14" class="message" data-entity-1="part5" data-entity-2="part5"><line style="stroke:#000;stroke-width:1" x1="724.746" x2="766.746" y1="492.156" y2="492.156"/><line style="stroke:#000;stroke-width:1" x1="766.746" x2="766.746" y1="492.156" y2="505.156"/><line style="stroke:#000;stroke-width:1" x1="725.746" x2="766.746" y1="505.156" y2="505.156"/><polygon fill="#000" points="735.746 501.156 725.746 505.156 735.746 509.156 731.746 505.156" style="stroke:#000;stroke-width:1"/><text x="731.746" y="487.09" fill="#000" font-family="Verdana" font-size="13" lengthAdjust="spacing" textLength="111.655">analyze_history()</text></g><g id="msg15" class="message" data-entity-1="part5" data-entity-2="part5"><line style="stroke:#000;stroke-width:1" x1="724.746" x2="766.746" y1="534.289" y2="534.289"/><line style="stroke:#000;stroke-width:1" x1="766.746" x2="766.746" y1="534.289" y2="547.289"/><line style="stroke:#000;stroke-width:1" x1="725.746" x2="766.746" y1="547.289" y2="547.289"/><polygon fill="#000" points="735.746 543.289 725.746 547.289 735.746 551.289 731.746 547.289" style="stroke:#000;stroke-width:1"/><text x="731.746" y="529.223" fill="#000" font-family="Verdana" font-size="13" lengthAdjust="spacing" textLength="174.56">apply_trend_adjustments()</text></g><g id="msg16" class="message" data-entity-1="part5" data-entity-2="part3"><polygon fill="#000" points="444.694 572.422 434.694 576.422 444.694 580.422 440.694 576.422" style="stroke:#000;stroke-width:1"/><line style="stroke:#000;stroke-width:1;stroke-dasharray:2,2" x1="438.694" x2="718.746" y1="576.422" y2="576.422"/><text x="450.694" y="571.356" fill="#000" font-family="Verdana" font-size="13" lengthAdjust="spacing" textLength="96.421">forecast_result</text></g><g id="msg17" class="message" data-entity-1="part3" data-entity-2="part6"><polygon fill="#000" points="911.307 601.555 921.307 605.555 911.307 609.555 915.307 605.555" style="stroke:#000;stroke-width:1"/><line style="stroke:#000;stroke-width:1" x1="433.694" x2="917.307" y1="605.555" y2="605.555"/><text x="440.694" y="600.489" fill="#000" font-family="Verdana" font-size="13" lengthAdjust="spacing" textLength="132.552">Save ForecastResult</text></g><g id="msg18" class="message" data-entity-1="part6" data-entity-2="part3"><polygon fill="#000" points="444.694 630.688 434.694 634.688 444.694 638.688 440.694 634.688" style="stroke:#000;stroke-width:1"/><line style="stroke:#000;stroke-width:1;stroke-dasharray:2,2" x1="438.694" x2="927.307" y1="634.688" y2="634.688"/><text x="450.694" y="629.622" fill="#000" font-family="Verdana" font-size="13" lengthAdjust="spacing" textLength="55.428">result_id</text></g><g id="msg19" class="message" data-entity-1="part3" data-entity-2="part6"><polygon fill="#000" points="911.307 659.82 921.307 663.82 911.307 667.82 915.307 663.82" style="stroke:#000;stroke-width:1"/><line style="stroke:#000;stroke-width:1" x1="433.694" x2="917.307" y1="663.82" y2="663.82"/><text x="440.694" y="658.754" fill="#000" font-family="Verdana" font-size="13" lengthAdjust="spacing" textLength="144.993">Update request status</text></g><g id="msg20" class="message" data-entity-1="part6" data-entity-2="part3"><polygon fill="#000" points="444.694 688.953 434.694 692.953 444.694 696.953 440.694 692.953" style="stroke:#000;stroke-width:1"/><line style="stroke:#000;stroke-width:1;stroke-dasharray:2,2" x1="438.694" x2="927.307" y1="692.953" y2="692.953"/><text x="450.694" y="687.887" fill="#000" font-family="Verdana" font-size="13" lengthAdjust="spacing" textLength="18.757">OK</text></g><g id="msg21" class="message" data-entity-1="part3" data-entity-2="part2"><polygon fill="#000" points="208.648 718.086 198.648 722.086 208.648 726.086 204.648 722.086" style="stroke:#000;stroke-width:1"/><line style="stroke:#000;stroke-width:1;stroke-dasharray:2,2" x1="202.648" x2="427.694" y1="722.086" y2="722.086"/><text x="214.648" y="717.02" fill="#000" font-family="Verdana" font-size="13" lengthAdjust="spacing" textLength="202.046">JSON {redirect: /forecast/{id}}</text></g><g id="msg22" class="message" data-entity-1="part2" data-entity-2="part3"><polygon fill="#000" points="411.694 747.219 421.694 751.219 411.694 755.219 415.694 751.219" style="stroke:#000;stroke-width:1"/><line style="stroke:#000;stroke-width:1" x1="197.648" x2="417.694" y1="751.219" y2="751.219"/><text x="204.648" y="746.153" fill="#000" font-family="Verdana" font-size="13" lengthAdjust="spacing" textLength="120.383">GET /forecast/{id}</text></g><g id="msg23" class="message" data-entity-1="part3" data-entity-2="part6"><polygon fill="#000" points="911.307 776.352 921.307 780.352 911.307 784.352 915.307 780.352" style="stroke:#000;stroke-width:1"/><line style="stroke:#000;stroke-width:1" x1="433.694" x2="917.307" y1="780.352" y2="780.352"/><text x="440.694" y="775.286" fill="#000" font-family="Verdana" font-size="13" lengthAdjust="spacing" textLength="123.811">Get ForecastResult</text></g><g id="msg24" class="message" data-entity-1="part6" data-entity-2="part3"><polygon fill="#000" points="444.694 805.484 434.694 809.484 444.694 813.484 440.694 809.484" style="stroke:#000;stroke-width:1"/><line style="stroke:#000;stroke-width:1;stroke-dasharray:2,2" x1="438.694" x2="927.307" y1="809.484" y2="809.484"/><text x="450.694" y="804.418" fill="#000" font-family="Verdana" font-size="13" lengthAdjust="spacing" textLength="70.478">result data</text></g><g id="msg25" class="message" data-entity-1="part3" data-entity-2="part2"><polygon fill="#000" points="208.648 834.617 198.648 838.617 208.648 842.617 204.648 838.617" style="stroke:#000;stroke-width:1"/><line style="stroke:#000;stroke-width:1;stroke-dasharray:2,2" x1="202.648" x2="427.694" y1="838.617" y2="838.617"/><text x="214.648" y="833.551" fill="#000" font-family="Verdana" font-size="13" lengthAdjust="spacing" textLength="137.598">Render forecast.html</text></g><g id="msg26" class="message" data-entity-1="part2" data-entity-2="part1"><polygon fill="#000" points="39.955 863.75 29.955 867.75 39.955 871.75 35.955 867.75" style="stroke:#000;stroke-width:1"/><line style="stroke:#000;stroke-width:1;stroke-dasharray:2,2" x1="33.955" x2="191.648" y1="867.75" y2="867.75"/><text x="45.955" y="862.684" fill="#000" font-family="Verdana" font-size="13" lengthAdjust="spacing" textLength="104.908">Display forecast</text></g></g></svg>