<svg xmlns="http://www.w3.org/2000/svg" xmlns:xlink="http://www.w3.org/1999/xlink" width="331" height="552" contentStyleType="text/css" data-diagram-type="ACTIVITY" style="width:331px;height:552px;background:#fff" preserveAspectRatio="none" version="1.1" viewBox="0 0 331 552" zoomAndPan="magnify"><g><ellipse cx="169.778" cy="15" fill="#FFF" rx="10" ry="10" style="stroke:#000;stroke-width:1"/><rect style="stroke:#000;stroke-width:1" width="144.406" height="47.938" x="97.575" y="45" fill="#FFF" rx="12.5" ry="12.5"/><text x="107.575" y="66.139" fill="#000" font-family="Verdana" font-size="12" lengthAdjust="spacing" textLength="124.406">User Enters Location</text><text x="107.575" y="80.107" fill="#000" font-family="Verdana" font-size="12" lengthAdjust="spacing" textLength="97.781">or Uploads JSON</text><rect style="stroke:#000;stroke-width:1" width="104.176" height="33.969" x="117.69" y="112.938" fill="#FFF" rx="12.5" ry="12.5"/><text x="127.69" y="134.076" fill="#000" font-family="Verdana" font-size="12" lengthAdjust="spacing" textLength="84.176">Validate Input</text><polygon fill="#FFF" points="153.179 166.906 186.378 166.906 198.378 178.906 186.378 190.906 153.179 190.906 141.179 178.906 153.179 166.906" style="stroke:#000;stroke-width:1"/><text x="153.179" y="182.714" fill="#000" font-family="Verdana" font-size="11" lengthAdjust="spacing" textLength="33.199">Valid?</text><text x="122.171" y="176.312" fill="#000" font-family="Verdana" font-size="11" lengthAdjust="spacing" textLength="19.008">yes</text><text x="198.378" y="176.312" fill="#000" font-family="Verdana" font-size="11" lengthAdjust="spacing" textLength="13.702">no</text><rect style="stroke:#000;stroke-width:1" width="157.596" height="33.969" x="6" y="200.906" fill="#FFF" rx="12.5" ry="12.5"/><text x="16" y="222.045" fill="#000" font-family="Verdana" font-size="12" lengthAdjust="spacing" textLength="137.596">Fetch Current Weather</text><rect style="stroke:#000;stroke-width:1" width="145.684" height="33.969" x="11.956" y="254.875" fill="#FFF" rx="12.5" ry="12.5"/><text x="21.956" y="276.014" fill="#000" font-family="Verdana" font-size="12" lengthAdjust="spacing" textLength="125.684">Fetch Historical Data</text><rect style="stroke:#000;stroke-width:1" width="112.221" height="33.969" x="28.688" y="308.844" fill="#FFF" rx="12.5" ry="12.5"/><text x="38.688" y="329.982" fill="#000" font-family="Verdana" font-size="12" lengthAdjust="spacing" textLength="92.221">Analyze Trends</text><rect style="stroke:#000;stroke-width:1" width="131.328" height="33.969" x="19.134" y="362.813" fill="#FFF" rx="12.5" ry="12.5"/><text x="29.134" y="383.951" fill="#000" font-family="Verdana" font-size="12" lengthAdjust="spacing" textLength="111.328">Generate Forecast</text><rect style="stroke:#000;stroke-width:1" width="135.705" height="33.969" x="16.945" y="416.781" fill="#FFF" rx="12.5" ry="12.5"/><text x="26.945" y="437.92" fill="#000" font-family="Verdana" font-size="12" lengthAdjust="spacing" textLength="115.705">Store Results in DB</text><rect style="stroke:#000;stroke-width:1" width="119.516" height="33.969" x="25.04" y="470.75" fill="#FFF" rx="12.5" ry="12.5"/><text x="35.04" y="491.889" fill="#000" font-family="Verdana" font-size="12" lengthAdjust="spacing" textLength="99.516">Display Forecast</text><ellipse cx="84.798" cy="535.719" fill="none" rx="11" ry="11" style="stroke:#000;stroke-width:1"/><ellipse cx="84.798" cy="535.719" fill="#FFF" rx="6" ry="6" style="stroke:#000;stroke-width:1"/><rect style="stroke:#000;stroke-width:1" width="142.326" height="33.969" x="183.596" y="200.906" fill="#FFF" rx="12.5" ry="12.5"/><text x="193.596" y="222.045" fill="#000" font-family="Verdana" font-size="12" lengthAdjust="spacing" textLength="122.326">Show Error Message</text><rect style="stroke:#000;stroke-width:1" width="111.318" height="33.969" x="199.1" y="254.875" fill="#FFF" rx="12.5" ry="12.5"/><text x="209.1" y="276.014" fill="#000" font-family="Verdana" font-size="12" lengthAdjust="spacing" textLength="91.318">Return to Input</text><ellipse cx="254.759" cy="319.844" fill="none" rx="11" ry="11" style="stroke:#000;stroke-width:1"/><ellipse cx="254.759" cy="319.844" fill="#FFF" rx="6" ry="6" style="stroke:#000;stroke-width:1"/><line style="stroke:#000;stroke-width:1" x1="169.778" x2="169.778" y1="25" y2="45"/><polygon fill="#000" points="165.778 35 169.778 45 173.778 35 169.778 39" style="stroke:#000;stroke-width:1"/><line style="stroke:#000;stroke-width:1" x1="169.778" x2="169.778" y1="92.938" y2="112.938"/><polygon fill="#000" points="165.778 102.938 169.778 112.938 173.778 102.938 169.778 106.938" style="stroke:#000;stroke-width:1"/><line style="stroke:#000;stroke-width:1" x1="84.798" x2="84.798" y1="234.875" y2="254.875"/><polygon fill="#000" points="80.798 244.875 84.798 254.875 88.798 244.875 84.798 248.875" style="stroke:#000;stroke-width:1"/><line style="stroke:#000;stroke-width:1" x1="84.798" x2="84.798" y1="288.844" y2="308.844"/><polygon fill="#000" points="80.798 298.844 84.798 308.844 88.798 298.844 84.798 302.844" style="stroke:#000;stroke-width:1"/><line style="stroke:#000;stroke-width:1" x1="84.798" x2="84.798" y1="342.813" y2="362.813"/><polygon fill="#000" points="80.798 352.813 84.798 362.813 88.798 352.813 84.798 356.813" style="stroke:#000;stroke-width:1"/><line style="stroke:#000;stroke-width:1" x1="84.798" x2="84.798" y1="396.781" y2="416.781"/><polygon fill="#000" points="80.798 406.781 84.798 416.781 88.798 406.781 84.798 410.781" style="stroke:#000;stroke-width:1"/><line style="stroke:#000;stroke-width:1" x1="84.798" x2="84.798" y1="450.75" y2="470.75"/><polygon fill="#000" points="80.798 460.75 84.798 470.75 88.798 460.75 84.798 464.75" style="stroke:#000;stroke-width:1"/><line style="stroke:#000;stroke-width:1" x1="84.798" x2="84.798" y1="504.719" y2="524.719"/><polygon fill="#000" points="80.798 514.719 84.798 524.719 88.798 514.719 84.798 518.719" style="stroke:#000;stroke-width:1"/><line style="stroke:#000;stroke-width:1" x1="254.759" x2="254.759" y1="234.875" y2="254.875"/><polygon fill="#000" points="250.759 244.875 254.759 254.875 258.759 244.875 254.759 248.875" style="stroke:#000;stroke-width:1"/><line style="stroke:#000;stroke-width:1" x1="254.759" x2="254.759" y1="288.844" y2="308.844"/><polygon fill="#000" points="250.759 298.844 254.759 308.844 258.759 298.844 254.759 302.844" style="stroke:#000;stroke-width:1"/><line style="stroke:#000;stroke-width:1" x1="141.179" x2="84.798" y1="178.906" y2="178.906"/><line style="stroke:#000;stroke-width:1" x1="84.798" x2="84.798" y1="178.906" y2="200.906"/><polygon fill="#000" points="80.798 190.906 84.798 200.906 88.798 190.906 84.798 194.906" style="stroke:#000;stroke-width:1"/><line style="stroke:#000;stroke-width:1" x1="198.378" x2="254.759" y1="178.906" y2="178.906"/><line style="stroke:#000;stroke-width:1" x1="254.759" x2="254.759" y1="178.906" y2="200.906"/><polygon fill="#000" points="250.759 190.906 254.759 200.906 258.759 190.906 254.759 194.906" style="stroke:#000;stroke-width:1"/><line style="stroke:#000;stroke-width:1" x1="169.778" x2="169.778" y1="146.906" y2="166.906"/><polygon fill="#000" points="165.778 156.906 169.778 166.906 173.778 156.906 169.778 160.906" style="stroke:#000;stroke-width:1"/></g></svg>