<svg xmlns="http://www.w3.org/2000/svg" xmlns:xlink="http://www.w3.org/1999/xlink" contentStyleType="text/css" data-diagram-type="STATE" height="1269px" preserveAspectRatio="none" style="width:323px;height:1269px;background:#FFFFFF;" version="1.1" viewBox="0 0 323 1269" width="323px" zoomAndPan="magnify"><defs/><g><path d="M108.99,108 L254.4763,108 A12.5,12.5 0 0 1 266.9763,120.5 L266.9763,134.2969 L96.49,134.2969 L96.49,120.5 A12.5,12.5 0 0 1 108.99,108" fill="#FFFFFF"/><path d="M96.49,134.2969 L266.9763,134.2969 L266.9763,248.7969 A12.5,12.5 0 0 1 254.4763,261.2969 L108.99,261.2969 A12.5,12.5 0 0 1 96.49,248.7969 L96.49,134.2969" fill="#FFFFFF"/><rect fill="none" height="153.2969" rx="12.5" ry="12.5" style="stroke:#000000;stroke-width:1;" width="170.4863" x="96.49" y="108"/><line style="stroke:#000000;stroke-width:1;" x1="96.49" x2="266.9763" y1="134.2969" y2="134.2969"/><text fill="#000000" font-family="Verdana" font-size="14" lengthAdjust="spacing" textLength="55.7129" x="153.8767" y="125.9951">Created</text><ellipse cx="183.23" cy="155.2969" fill="#FFFFFF" rx="10" ry="10" style="stroke:#000000;stroke-width:1;"/><g><rect fill="#FFFFFF" height="50" rx="12.5" ry="12.5" style="stroke:#000000;stroke-width:1;" width="149.4863" x="108.49" y="201.2969"/><line style="stroke:#000000;stroke-width:1;" x1="108.49" x2="257.9763" y1="227.5938" y2="227.5938"/><text fill="#000000" font-family="Verdana" font-size="14" lengthAdjust="spacing" textLength="129.4863" x="118.49" y="219.292">WaitingForProcess</text></g><!--link *start*Created to WaitingForProcess--><g class="link" data-entity-1="ent0013" data-entity-2="ent0014" data-link-type="dependency" data-source-line="16" id="lnk15"><path d="M183.23,165.6069 C183.23,174.6469 183.23,182.7869 183.23,195.0269" fill="none" id="*start*Created-to-WaitingForProcess" style="stroke:#000000;stroke-width:1;"/><polygon fill="#000000" points="183.23,201.0269,187.23,192.0269,183.23,196.0269,179.23,192.0269,183.23,201.0269" style="stroke:#000000;stroke-width:1;"/></g><path d="M24.5,338.3 L178.9688,338.3 A12.5,12.5 0 0 1 191.4688,350.8 L191.4688,364.5969 L12,364.5969 L12,350.8 A12.5,12.5 0 0 1 24.5,338.3" fill="#FFFFFF"/><path d="M12,364.5969 L191.4688,364.5969 L191.4688,795.0969 A12.5,12.5 0 0 1 178.9688,807.5969 L24.5,807.5969 A12.5,12.5 0 0 1 12,795.0969 L12,364.5969" fill="#FFFFFF"/><rect fill="none" height="469.2969" rx="12.5" ry="12.5" style="stroke:#000000;stroke-width:1;" width="179.4688" x="12" y="338.3"/><line style="stroke:#000000;stroke-width:1;" x1="12" x2="191.4688" y1="364.5969" y2="364.5969"/><text fill="#000000" font-family="Verdana" font-size="14" lengthAdjust="spacing" textLength="75.3115" x="64.0786" y="356.2951">Processing</text><ellipse cx="103.23" cy="385.5969" fill="#FFFFFF" rx="10" ry="10" style="stroke:#000000;stroke-width:1;"/><g><rect fill="#FFFFFF" height="50" rx="12.5" ry="12.5" style="stroke:#000000;stroke-width:1;" width="113.8027" x="46.33" y="431.5969"/><line style="stroke:#000000;stroke-width:1;" x1="46.33" x2="160.1327" y1="457.8938" y2="457.8938"/><text fill="#000000" font-family="Verdana" font-size="14" lengthAdjust="spacing" textLength="93.8027" x="56.33" y="449.592">FetchingData</text></g><g><rect fill="#FFFFFF" height="50" rx="12.5" ry="12.5" style="stroke:#000000;stroke-width:1;" width="136.1768" x="35.15" y="517.5969"/><line style="stroke:#000000;stroke-width:1;" x1="35.15" x2="171.3268" y1="543.8938" y2="543.8938"/><text fill="#000000" font-family="Verdana" font-size="14" lengthAdjust="spacing" textLength="116.1768" x="45.15" y="535.592">AnalyzingTrends</text></g><g><rect fill="#FFFFFF" height="50" rx="12.5" ry="12.5" style="stroke:#000000;stroke-width:1;" width="158.4688" x="24" y="603.5969"/><line style="stroke:#000000;stroke-width:1;" x1="24" x2="182.4688" y1="629.8938" y2="629.8938"/><text fill="#000000" font-family="Verdana" font-size="14" lengthAdjust="spacing" textLength="138.4688" x="34" y="621.592">GeneratingForecast</text></g><g><rect fill="#FFFFFF" height="50" rx="12.5" ry="12.5" style="stroke:#000000;stroke-width:1;" width="118.5811" x="43.94" y="689.5969"/><line style="stroke:#000000;stroke-width:1;" x1="43.94" x2="162.5211" y1="715.8938" y2="715.8938"/><text fill="#000000" font-family="Verdana" font-size="14" lengthAdjust="spacing" textLength="98.5811" x="53.94" y="707.592">SavingResults</text></g><ellipse cx="103.23" cy="786.5969" fill="none" rx="11" ry="11" style="stroke:#000000;stroke-width:1;"/><ellipse cx="103.23" cy="786.5969" fill="#FFFFFF" rx="6" ry="6" style="stroke:#000000;stroke-width:1;"/><!--link *start*Processing to FetchingData--><g class="link" data-entity-1="ent0016" data-entity-2="ent0017" data-link-type="dependency" data-source-line="20" id="lnk18"><path d="M103.23,395.9069 C103.23,404.9469 103.23,413.0869 103.23,425.3269" fill="none" id="*start*Processing-to-FetchingData" style="stroke:#000000;stroke-width:1;"/><polygon fill="#000000" points="103.23,431.3269,107.23,422.3269,103.23,426.3269,99.23,422.3269,103.23,431.3269" style="stroke:#000000;stroke-width:1;"/></g><!--link FetchingData to AnalyzingTrends--><g class="link" data-entity-1="ent0017" data-entity-2="ent0019" data-link-type="dependency" data-source-line="21" id="lnk20"><path d="M103.23,481.8969 C103.23,493.0369 103.23,500.2169 103.23,511.3569" fill="none" id="FetchingData-to-AnalyzingTrends" style="stroke:#000000;stroke-width:1;"/><polygon fill="#000000" points="103.23,517.3569,107.23,508.3569,103.23,512.3569,99.23,508.3569,103.23,517.3569" style="stroke:#000000;stroke-width:1;"/></g><!--link AnalyzingTrends to GeneratingForecast--><g class="link" data-entity-1="ent0019" data-entity-2="ent0021" data-link-type="dependency" data-source-line="22" id="lnk22"><path d="M103.23,567.8969 C103.23,579.0369 103.23,586.2169 103.23,597.3569" fill="none" id="AnalyzingTrends-to-GeneratingForecast" style="stroke:#000000;stroke-width:1;"/><polygon fill="#000000" points="103.23,603.3569,107.23,594.3569,103.23,598.3569,99.23,594.3569,103.23,603.3569" style="stroke:#000000;stroke-width:1;"/></g><!--link GeneratingForecast to SavingResults--><g class="link" data-entity-1="ent0021" data-entity-2="ent0023" data-link-type="dependency" data-source-line="23" id="lnk24"><path d="M103.23,653.8969 C103.23,665.0369 103.23,672.2169 103.23,683.3569" fill="none" id="GeneratingForecast-to-SavingResults" style="stroke:#000000;stroke-width:1;"/><polygon fill="#000000" points="103.23,689.3569,107.23,680.3569,103.23,684.3569,99.23,680.3569,103.23,689.3569" style="stroke:#000000;stroke-width:1;"/></g><!--link SavingResults to *end*Processing--><g class="link" data-entity-1="ent0023" data-entity-2="ent0025" data-link-type="dependency" data-source-line="24" id="lnk26"><path d="M103.23,740.0769 C103.23,752.0669 103.23,759.8669 103.23,769.0969" fill="none" id="SavingResults-to-*end*Processing" style="stroke:#000000;stroke-width:1;"/><polygon fill="#000000" points="103.23,775.0969,107.23,766.0969,103.23,770.0969,99.23,766.0969,103.23,775.0969" style="stroke:#000000;stroke-width:1;"/></g><path d="M31.52,884.59 L171.9546,884.59 A12.5,12.5 0 0 1 184.4546,897.09 L184.4546,910.8869 L19.02,910.8869 L19.02,897.09 A12.5,12.5 0 0 1 31.52,884.59" fill="#FFFFFF"/><path d="M19.02,910.8869 L184.4546,910.8869 L184.4546,1025.3869 A12.5,12.5 0 0 1 171.9546,1037.8869 L31.52,1037.8869 A12.5,12.5 0 0 1 19.02,1025.3869 L19.02,910.8869" fill="#FFFFFF"/><rect fill="none" height="153.2969" rx="12.5" ry="12.5" style="stroke:#000000;stroke-width:1;" width="165.4346" x="19.02" y="884.59"/><line style="stroke:#000000;stroke-width:1;" x1="19.02" x2="184.4546" y1="910.8869" y2="910.8869"/><text fill="#000000" font-family="Verdana" font-size="14" lengthAdjust="spacing" textLength="76.3574" x="63.5586" y="902.5851">Completed</text><ellipse cx="103.24" cy="931.8869" fill="#FFFFFF" rx="10" ry="10" style="stroke:#000000;stroke-width:1;"/><g><rect fill="#FFFFFF" height="50" rx="12.5" ry="12.5" style="stroke:#000000;stroke-width:1;" width="144.4346" x="31.02" y="977.8869"/><line style="stroke:#000000;stroke-width:1;" x1="31.02" x2="175.4546" y1="1004.1838" y2="1004.1838"/><text fill="#000000" font-family="Verdana" font-size="14" lengthAdjust="spacing" textLength="124.4346" x="41.02" y="995.882">DisplayingResults</text></g><!--link *start*Completed to DisplayingResults--><g class="link" data-entity-1="ent0027" data-entity-2="ent0028" data-link-type="dependency" data-source-line="28" id="lnk29"><path d="M103.24,942.1969 C103.24,951.2369 103.24,959.3769 103.24,971.6169" fill="none" id="*start*Completed-to-DisplayingResults" style="stroke:#000000;stroke-width:1;"/><polygon fill="#000000" points="103.24,977.6169,107.24,968.6169,103.24,972.6169,99.24,968.6169,103.24,977.6169" style="stroke:#000000;stroke-width:1;"/></g><ellipse cx="181.73" cy="21" fill="#FFFFFF" rx="10" ry="10" style="stroke:#000000;stroke-width:1;"/><g><rect fill="#FFFFFF" height="50" rx="12.5" ry="12.5" style="stroke:#000000;stroke-width:1;" width="61.9111" x="224.78" y="936.24"/><line style="stroke:#000000;stroke-width:1;" x1="224.78" x2="286.6911" y1="962.5369" y2="962.5369"/><text fill="#000000" font-family="Verdana" font-size="14" lengthAdjust="spacing" textLength="41.9111" x="234.78" y="954.2351">Failed</text></g><g><rect fill="#FFFFFF" height="50" rx="12.5" ry="12.5" style="stroke:#000000;stroke-width:1;" width="81.5781" x="60.95" y="1114.89"/><line style="stroke:#000000;stroke-width:1;" x1="60.95" x2="142.5281" y1="1141.1869" y2="1141.1869"/><text fill="#000000" font-family="Verdana" font-size="14" lengthAdjust="spacing" textLength="61.5781" x="70.95" y="1132.8851">Archived</text></g><ellipse cx="101.73" cy="1252.89" fill="none" rx="11" ry="11" style="stroke:#000000;stroke-width:1;"/><ellipse cx="101.73" cy="1252.89" fill="#FFFFFF" rx="6" ry="6" style="stroke:#000000;stroke-width:1;"/><!--link *start* to Created--><g class="link" data-entity-1="ent0002" data-entity-2="ent0002" data-link-type="dependency" data-source-line="3" id="lnk3"><path d="M181.73,31.15 C181.73,46.18 181.73,71.45 181.73,101.78" fill="none" id="*start*-to-Created" style="stroke:#000000;stroke-width:1;"/><polygon fill="#000000" points="181.73,107.78,185.73,98.78,181.73,102.78,177.73,98.78,181.73,107.78" style="stroke:#000000;stroke-width:1;"/><text fill="#000000" font-family="Verdana" font-size="13" lengthAdjust="spacing" textLength="123.5063" x="182.73" y="74.0669">Request submitted</text></g><!--link Created to Processing--><g class="link" data-entity-1="ent0002" data-entity-2="ent0003" data-link-type="dependency" data-source-line="5" id="lnk4"><path d="M138.69,261.57 C134.41,271.35 130.6,281.4 127.73,291.3 C123.37,306.33 120.8382,316.1109 117.7382,332.0109" fill="none" id="Created-to-Processing" style="stroke:#000000;stroke-width:1;"/><polygon fill="#000000" points="116.59,337.9,122.2384,329.8318,117.5468,332.9924,114.3862,328.3009,116.59,337.9" style="stroke:#000000;stroke-width:1;"/><text fill="#000000" font-family="Verdana" font-size="13" lengthAdjust="spacing" textLength="106.2344" x="128.73" y="304.3669">Start processing</text></g><!--link Processing to Completed--><g class="link" data-entity-1="ent0003" data-entity-2="ent0004" data-link-type="dependency" data-source-line="6" id="lnk5"><path d="M101.73,807.84 C101.73,835.29 101.73,855.59 101.73,878.38" fill="none" id="Processing-to-Completed" style="stroke:#000000;stroke-width:1;"/><polygon fill="#000000" points="101.73,884.38,105.73,875.38,101.73,879.38,97.73,875.38,101.73,884.38" style="stroke:#000000;stroke-width:1;"/><text fill="#000000" font-family="Verdana" font-size="13" lengthAdjust="spacing" textLength="52.3301" x="102.73" y="850.6569">Success</text></g><!--link Processing to Failed--><g class="link" data-entity-1="ent0003" data-entity-2="ent0006" data-link-type="dependency" data-source-line="7" id="lnk7"><path d="M182.52,808 C188.8,823.86 195.23,839.51 201.73,854.59 C214.06,883.15 227.7579,909.5121 239.2779,930.6421" fill="none" id="Processing-to-Failed" style="stroke:#000000;stroke-width:1;"/><polygon fill="#000000" points="242.15,935.91,241.3539,926.0934,239.7566,931.52,234.3299,929.9228,242.15,935.91" style="stroke:#000000;stroke-width:1;"/><text fill="#000000" font-family="Verdana" font-size="13" lengthAdjust="spacing" textLength="32.2017" x="202.73" y="850.6569">Error</text></g><!--link Failed to Created--><g class="link" data-entity-1="ent0006" data-entity-2="ent0002" data-link-type="dependency" data-source-line="9" id="lnk8"><path d="M259.21,935.96 C271.04,847.55 305.42,535.28 239.73,291.3 C237.07,281.4 235.7662,276.8897 231.4062,267.2197" fill="none" id="Failed-to-Created" style="stroke:#000000;stroke-width:1;"/><polygon fill="#000000" points="228.94,261.75,228.9928,271.5987,230.9952,266.3081,236.2858,268.3105,228.94,261.75" style="stroke:#000000;stroke-width:1;"/><text fill="#000000" font-family="Verdana" font-size="13" lengthAdjust="spacing" textLength="35.166" x="280.73" y="577.5069">Retry</text></g><!--link Completed to Archived--><g class="link" data-entity-1="ent0004" data-entity-2="ent0009" data-link-type="dependency" data-source-line="11" id="lnk10"><path d="M101.73,1038.18 C101.73,1065.67 101.73,1088.8 101.73,1108.62" fill="none" id="Completed-to-Archived" style="stroke:#000000;stroke-width:1;"/><polygon fill="#000000" points="101.73,1114.62,105.73,1105.62,101.73,1109.62,97.73,1105.62,101.73,1114.62" style="stroke:#000000;stroke-width:1;"/><text fill="#000000" font-family="Verdana" font-size="13" lengthAdjust="spacing" textLength="87.4009" x="102.73" y="1080.9569">After 30 days</text></g><!--link Archived to *end*--><g class="link" data-entity-1="ent0009" data-entity-2="ent0011" data-link-type="dependency" data-source-line="13" id="lnk12"><path d="M101.73,1165.25 C101.73,1189.12 101.73,1218.35 101.73,1235.6" fill="none" id="Archived-to-*end*" style="stroke:#000000;stroke-width:1;"/><polygon fill="#000000" points="101.73,1241.6,105.73,1232.6,101.73,1236.6,97.73,1232.6,101.73,1241.6" style="stroke:#000000;stroke-width:1;"/><text fill="#000000" font-family="Verdana" font-size="13" lengthAdjust="spacing" textLength="53.3838" x="102.73" y="1207.9569">Cleanup</text></g><!--SRC=[PLBBQiCm4BplLsolWK2Xjnm28Qbx3N6XXzB3rjuc0bbsL-k0M_BlbUL7R5StpSoEPXOzw8KBnigISG3lgmzShxUu5oRb73Tuuk-QlQAlFmkZ0GCOo5Pub39Zxuqx1ssg98hL2C64ZQvbKLdkVDCwQwcb925Z8_yiKWf0VrzcKcb2Zj6kfNUINSmryhilPS6dHyofyG0ZqyhQXXlSMoPNLm1UW-Te_GiOph24Dp8QSYMbz27XDWnCKizd4jRmc3iVI2aIKw3BwSWsFm5v5NQvZw855dKlx5Ye3y0PUOtI_t1KftGDq8bzRRNpd253zNk3-_Bc1Gx6Xx_GJCnkVm00]--></g></svg>