<svg xmlns="http://www.w3.org/2000/svg" xmlns:xlink="http://www.w3.org/1999/xlink" contentStyleType="text/css" data-diagram-type="DESCRIPTION" height="370px" preserveAspectRatio="none" style="width:1308px;height:370px;background:#FFFFFF;" version="1.1" viewBox="0 0 1308 370" width="1308px" zoomAndPan="magnify"><defs/><g><!--cluster Galaxy Weather Application--><g class="cluster" data-qualified-name="Galaxy Weather Application" data-source-line="3" id="ent0002"><path d="M13.5,11 L234.3301,11 A3.75,3.75 0 0 1 236.8301,13.5 L243.8301,33.2969 L1298.5,33.2969 A2.5,2.5 0 0 1 1301,35.7969 L1301,361.39 A2.5,2.5 0 0 1 1298.5,363.89 L13.5,363.89 A2.5,2.5 0 0 1 11,361.39 L11,13.5 A2.5,2.5 0 0 1 13.5,11" fill="#FFFFFF" style="stroke:#000000;stroke-width:1;"/><line style="stroke:#000000;stroke-width:1;" x1="11" x2="243.8301" y1="33.2969" y2="33.2969"/><text fill="#000000" font-family="Verdana" font-size="14" font-weight="bold" lengthAdjust="spacing" textLength="219.8301" x="15" y="25.9951">Galaxy Weather Application</text></g><!--cluster Frontend (Jinja2 Templates)--><g class="cluster" data-qualified-name="Galaxy Weather Application.Frontend .Jinja2 Templates." data-source-line="5" id="ent0003"><path d="M37.5,54 L259.6563,54 A3.75,3.75 0 0 1 262.1563,56.5 L269.1563,76.2969 L510.5,76.2969 A2.5,2.5 0 0 1 513,78.7969 L513,255.09 A2.5,2.5 0 0 1 510.5,257.59 L37.5,257.59 A2.5,2.5 0 0 1 35,255.09 L35,56.5 A2.5,2.5 0 0 1 37.5,54" fill="#FFFFFF" style="stroke:#000000;stroke-width:1;"/><line style="stroke:#000000;stroke-width:1;" x1="35" x2="269.1563" y1="76.2969" y2="76.2969"/><text fill="#000000" font-family="Verdana" font-size="14" font-weight="bold" lengthAdjust="spacing" textLength="221.1563" x="39" y="68.9951">Frontend (Jinja2 Templates)</text></g><!--cluster Static Assets--><g class="cluster" data-qualified-name="Galaxy Weather Application.Static Assets" data-source-line="12" id="ent0008"><path d="M539.5,160.3 L643.4082,160.3 A3.75,3.75 0 0 1 645.9082,162.8 L652.9082,182.5969 L952.5,182.5969 A2.5,2.5 0 0 1 955,185.0969 L955,255.09 A2.5,2.5 0 0 1 952.5,257.59 L539.5,257.59 A2.5,2.5 0 0 1 537,255.09 L537,162.8 A2.5,2.5 0 0 1 539.5,160.3" fill="#FFFFFF" style="stroke:#000000;stroke-width:1;"/><line style="stroke:#000000;stroke-width:1;" x1="537" x2="652.9082" y1="182.5969" y2="182.5969"/><text fill="#000000" font-family="Verdana" font-size="14" font-weight="bold" lengthAdjust="spacing" textLength="102.9082" x="541" y="175.2951">Static Assets</text></g><!--cluster Backend (Flask)--><g class="cluster" data-qualified-name="Galaxy Weather Application.Backend .Flask." data-source-line="18" id="ent0012"><path d="M981.5,54 L1108.835,54 A3.75,3.75 0 0 1 1111.335,56.5 L1118.335,76.2969 L1274.5,76.2969 A2.5,2.5 0 0 1 1277,78.7969 L1277,255.09 A2.5,2.5 0 0 1 1274.5,257.59 L981.5,257.59 A2.5,2.5 0 0 1 979,255.09 L979,56.5 A2.5,2.5 0 0 1 981.5,54" fill="#FFFFFF" style="stroke:#000000;stroke-width:1;"/><line style="stroke:#000000;stroke-width:1;" x1="979" x2="1118.335" y1="76.2969" y2="76.2969"/><text fill="#000000" font-family="Verdana" font-size="14" font-weight="bold" lengthAdjust="spacing" textLength="126.335" x="983" y="68.9951">Backend (Flask)</text></g><!--entity DB--><g class="entity" data-qualified-name="Galaxy Weather Application.DB" data-source-line="24" id="ent0016"><path d="M1172.15,312.09 C1172.15,302.09 1204.9991,302.09 1204.9991,302.09 C1204.9991,302.09 1237.8482,302.09 1237.8482,312.09 L1237.8482,337.3869 C1237.8482,347.3869 1204.9991,347.3869 1204.9991,347.3869 C1204.9991,347.3869 1172.15,347.3869 1172.15,337.3869 L1172.15,312.09" fill="#FFFFFF" style="stroke:#000000;stroke-width:1;"/><path d="M1172.15,312.09 C1172.15,322.09 1204.9991,322.09 1204.9991,322.09 C1204.9991,322.09 1237.8482,322.09 1237.8482,312.09" fill="none" style="stroke:#000000;stroke-width:1;"/><text fill="#000000" font-family="Verdana" font-size="14" lengthAdjust="spacing" textLength="45.6982" x="1182.15" y="339.0851">SQLite</text></g><!--entity API--><g class="entity" data-qualified-name="Galaxy Weather Application.API" data-source-line="26" id="ent0017"><path d="M1008.0017,310.7102 C1011.7699,304.1893 1015.7156,304.7813 1020.024,310.1647 C1023.2926,305.1606 1027.8383,304.5775 1031.4489,309.782 C1035.049,304.5071 1038.9531,302.6736 1043.5831,308.6737 C1047.5981,302.7069 1051.3256,302.2192 1056.0192,307.9524 C1060.3913,302.9507 1064.7301,302.6462 1067.7899,309.2799 C1071.9764,304.5575 1075.501,304.379 1079.4805,309.5252 C1083.0196,303.9727 1087.3157,303.317 1090.862,309.5181 C1095.2039,304.4213 1101.2344,303.89 1104.0722,311.1288 C1112.9604,313.0575 1113.7542,320.3773 1107.5696,325.8797 C1113.9483,332.0882 1112.028,339.0828 1103.7558,341.7764 C1100.7936,348.35 1095.7254,348.5083 1091.5599,342.9901 C1088.9149,348.1147 1083.9284,349.1195 1079.9442,344.6036 C1076.642,351.4734 1072.2786,353.5901 1066.0996,347.733 C1062.9746,354.1821 1059.437,353.6782 1055.0433,348.9928 C1050.4289,354.1116 1046.5165,354.7683 1042.7496,348.1083 C1037.9127,351.9949 1034.4666,351.5675 1031.4213,345.9685 C1026.3872,352.5189 1021.4637,351.7806 1018.4322,344.1361 C1013.5148,349.3523 1008.6388,346.27 1007.0278,340.6548 C998.5013,337.5193 997.2804,332.0905 1003.2288,325.3597 C997.8197,319.0679 999.0184,312.3128 1008.0017,310.7102" fill="#FFFFFF" style="stroke:#000000;stroke-width:1;"/><text fill="#000000" font-family="Verdana" font-size="14" lengthAdjust="spacing" textLength="81.915" x="1013.04" y="329.5851">WeatherAPI</text></g><!--entity Index--><g class="entity" data-qualified-name="Galaxy Weather Application.Frontend .Jinja2 Templates..Index" data-source-line="6" id="ent0004"><rect fill="#FFFFFF" height="46.2969" rx="2.5" ry="2.5" style="stroke:#000000;stroke-width:1;" width="114.8877" x="382.56" y="89"/><rect fill="#FFFFFF" height="10" style="stroke:#000000;stroke-width:1;" width="15" x="477.4477" y="94"/><rect fill="#FFFFFF" height="2" style="stroke:#000000;stroke-width:1;" width="4" x="475.4477" y="96"/><rect fill="#FFFFFF" height="2" style="stroke:#000000;stroke-width:1;" width="4" x="475.4477" y="100"/><text fill="#000000" font-family="Verdana" font-size="14" lengthAdjust="spacing" textLength="74.8877" x="397.56" y="121.9951">index.html</text></g><!--entity Loading--><g class="entity" data-qualified-name="Galaxy Weather Application.Frontend .Jinja2 Templates..Loading" data-source-line="7" id="ent0005"><rect fill="#FFFFFF" height="46.2969" rx="2.5" ry="2.5" style="stroke:#000000;stroke-width:1;" width="127.9102" x="51.04" y="89"/><rect fill="#FFFFFF" height="10" style="stroke:#000000;stroke-width:1;" width="15" x="158.9502" y="94"/><rect fill="#FFFFFF" height="2" style="stroke:#000000;stroke-width:1;" width="4" x="156.9502" y="96"/><rect fill="#FFFFFF" height="2" style="stroke:#000000;stroke-width:1;" width="4" x="156.9502" y="100"/><text fill="#000000" font-family="Verdana" font-size="14" lengthAdjust="spacing" textLength="87.9102" x="66.04" y="121.9951">loading.html</text></g><!--entity Forecast--><g class="entity" data-qualified-name="Galaxy Weather Application.Frontend .Jinja2 Templates..Forecast" data-source-line="8" id="ent0006"><rect fill="#FFFFFF" height="46.2969" rx="2.5" ry="2.5" style="stroke:#000000;stroke-width:1;" width="133.2627" x="214.37" y="89"/><rect fill="#FFFFFF" height="10" style="stroke:#000000;stroke-width:1;" width="15" x="327.6327" y="94"/><rect fill="#FFFFFF" height="2" style="stroke:#000000;stroke-width:1;" width="4" x="325.6327" y="96"/><rect fill="#FFFFFF" height="2" style="stroke:#000000;stroke-width:1;" width="4" x="325.6327" y="100"/><text fill="#000000" font-family="Verdana" font-size="14" lengthAdjust="spacing" textLength="93.2627" x="229.37" y="121.9951">forecast.html</text></g><!--entity Base--><g class="entity" data-qualified-name="Galaxy Weather Application.Frontend .Jinja2 Templates..Base" data-source-line="9" id="ent0007"><rect fill="#FFFFFF" height="46.2969" rx="2.5" ry="2.5" style="stroke:#000000;stroke-width:1;" width="109.7129" x="226.14" y="195.3"/><rect fill="#FFFFFF" height="10" style="stroke:#000000;stroke-width:1;" width="15" x="315.8529" y="200.3"/><rect fill="#FFFFFF" height="2" style="stroke:#000000;stroke-width:1;" width="4" x="313.8529" y="202.3"/><rect fill="#FFFFFF" height="2" style="stroke:#000000;stroke-width:1;" width="4" x="313.8529" y="206.3"/><text fill="#000000" font-family="Verdana" font-size="14" lengthAdjust="spacing" textLength="69.7129" x="241.14" y="228.2951">base.html</text></g><!--entity CSS--><g class="entity" data-qualified-name="Galaxy Weather Application.Static Assets.CSS" data-source-line="13" id="ent0009"><rect fill="#FFFFFF" height="46.2969" rx="2.5" ry="2.5" style="stroke:#000000;stroke-width:1;" width="100.3066" x="552.85" y="195.3"/><rect fill="#FFFFFF" height="10" style="stroke:#000000;stroke-width:1;" width="15" x="633.1566" y="200.3"/><rect fill="#FFFFFF" height="2" style="stroke:#000000;stroke-width:1;" width="4" x="631.1566" y="202.3"/><rect fill="#FFFFFF" height="2" style="stroke:#000000;stroke-width:1;" width="4" x="631.1566" y="206.3"/><text fill="#000000" font-family="Verdana" font-size="14" lengthAdjust="spacing" textLength="60.3066" x="567.85" y="228.2951">style.css</text></g><!--entity GalaxyCSS--><g class="entity" data-qualified-name="Galaxy Weather Application.Static Assets.GalaxyCSS" data-source-line="14" id="ent0010"><rect fill="#FFFFFF" height="46.2969" rx="2.5" ry="2.5" style="stroke:#000000;stroke-width:1;" width="113.2402" x="688.38" y="195.3"/><rect fill="#FFFFFF" height="10" style="stroke:#000000;stroke-width:1;" width="15" x="781.6202" y="200.3"/><rect fill="#FFFFFF" height="2" style="stroke:#000000;stroke-width:1;" width="4" x="779.6202" y="202.3"/><rect fill="#FFFFFF" height="2" style="stroke:#000000;stroke-width:1;" width="4" x="779.6202" y="206.3"/><text fill="#000000" font-family="Verdana" font-size="14" lengthAdjust="spacing" textLength="73.2402" x="703.38" y="228.2951">galaxy.css</text></g><!--entity GalaxyJS--><g class="entity" data-qualified-name="Galaxy Weather Application.Static Assets.GalaxyJS" data-source-line="15" id="ent0011"><rect fill="#FFFFFF" height="46.2969" rx="2.5" ry="2.5" style="stroke:#000000;stroke-width:1;" width="102.1387" x="836.93" y="195.3"/><rect fill="#FFFFFF" height="10" style="stroke:#000000;stroke-width:1;" width="15" x="919.0687" y="200.3"/><rect fill="#FFFFFF" height="2" style="stroke:#000000;stroke-width:1;" width="4" x="917.0687" y="202.3"/><rect fill="#FFFFFF" height="2" style="stroke:#000000;stroke-width:1;" width="4" x="917.0687" y="206.3"/><text fill="#000000" font-family="Verdana" font-size="14" lengthAdjust="spacing" textLength="62.1387" x="851.93" y="228.2951">galaxy.js</text></g><!--entity App--><g class="entity" data-qualified-name="Galaxy Weather Application.Backend .Flask..App" data-source-line="19" id="ent0013"><rect fill="#FFFFFF" height="46.2969" rx="2.5" ry="2.5" style="stroke:#000000;stroke-width:1;" width="87.9746" x="1085.01" y="89"/><rect fill="#FFFFFF" height="10" style="stroke:#000000;stroke-width:1;" width="15" x="1152.9846" y="94"/><rect fill="#FFFFFF" height="2" style="stroke:#000000;stroke-width:1;" width="4" x="1150.9846" y="96"/><rect fill="#FFFFFF" height="2" style="stroke:#000000;stroke-width:1;" width="4" x="1150.9846" y="100"/><text fill="#000000" font-family="Verdana" font-size="14" lengthAdjust="spacing" textLength="47.9746" x="1100.01" y="121.9951">app.py</text></g><!--entity ForecastModule--><g class="entity" data-qualified-name="Galaxy Weather Application.Backend .Flask..ForecastModule" data-source-line="20" id="ent0014"><rect fill="#FFFFFF" height="46.2969" rx="2.5" ry="2.5" style="stroke:#000000;stroke-width:1;" width="118.5449" x="994.73" y="195.3"/><rect fill="#FFFFFF" height="10" style="stroke:#000000;stroke-width:1;" width="15" x="1093.2749" y="200.3"/><rect fill="#FFFFFF" height="2" style="stroke:#000000;stroke-width:1;" width="4" x="1091.2749" y="202.3"/><rect fill="#FFFFFF" height="2" style="stroke:#000000;stroke-width:1;" width="4" x="1091.2749" y="206.3"/><text fill="#000000" font-family="Verdana" font-size="14" lengthAdjust="spacing" textLength="78.5449" x="1009.73" y="228.2951">forecast.py</text></g><!--entity Models--><g class="entity" data-qualified-name="Galaxy Weather Application.Backend .Flask..Models" data-source-line="21" id="ent0015"><rect fill="#FFFFFF" height="46.2969" rx="2.5" ry="2.5" style="stroke:#000000;stroke-width:1;" width="112.5088" x="1148.75" y="195.3"/><rect fill="#FFFFFF" height="10" style="stroke:#000000;stroke-width:1;" width="15" x="1241.2588" y="200.3"/><rect fill="#FFFFFF" height="2" style="stroke:#000000;stroke-width:1;" width="4" x="1239.2588" y="202.3"/><rect fill="#FFFFFF" height="2" style="stroke:#000000;stroke-width:1;" width="4" x="1239.2588" y="206.3"/><text fill="#000000" font-family="Verdana" font-size="14" lengthAdjust="spacing" textLength="72.5088" x="1163.75" y="228.2951">models.py</text></g><!--link Index to Base--><g class="link" data-entity-1="ent0004" data-entity-2="ent0007" data-link-type="dependency" data-source-line="29" id="lnk18"><path d="M405.5,135.78 C378.83,153.27 347.1076,174.0901 320.4476,191.5701" fill="none" id="Index-to-Base" style="stroke:#000000;stroke-width:1;"/><polygon fill="#000000" points="315.43,194.86,325.1497,193.2703,319.6114,192.1184,320.7632,186.5801,315.43,194.86" style="stroke:#000000;stroke-width:1;"/></g><!--link Loading to Base--><g class="link" data-entity-1="ent0005" data-entity-2="ent0007" data-link-type="dependency" data-source-line="30" id="lnk19"><path d="M151.02,135.78 C178.86,153.27 212.1391,174.1887 239.9691,191.6687" fill="none" id="Loading-to-Base" style="stroke:#000000;stroke-width:1;"/><polygon fill="#000000" points="245.05,194.86,239.5562,186.6858,240.8159,192.2006,235.3011,193.4603,245.05,194.86" style="stroke:#000000;stroke-width:1;"/></g><!--link Forecast to Base--><g class="link" data-entity-1="ent0006" data-entity-2="ent0007" data-link-type="dependency" data-source-line="31" id="lnk20"><path d="M281,135.78 C281,153.27 281,171.38 281,188.86" fill="none" id="Forecast-to-Base" style="stroke:#000000;stroke-width:1;"/><polygon fill="#000000" points="281,194.86,285,185.86,281,189.86,277,185.86,281,194.86" style="stroke:#000000;stroke-width:1;"/></g><!--link Index to CSS--><g class="link" data-entity-1="ent0004" data-entity-2="ent0009" data-link-type="dependency" data-source-line="33" id="lnk21"><path d="M484.16,135.6 C493.81,140.84 503.86,146.57 513,152.3 C534.09,165.5 551.9893,178.3276 569.3093,191.3876" fill="none" id="Index-to-CSS" style="stroke:#000000;stroke-width:1;"/><polygon fill="#000000" points="574.1,195,569.3222,186.3876,570.1078,191.9897,564.5057,192.7752,574.1,195" style="stroke:#000000;stroke-width:1;"/></g><!--link Index to GalaxyCSS--><g class="link" data-entity-1="ent0004" data-entity-2="ent0010" data-link-type="dependency" data-source-line="34" id="lnk22"><path d="M497.69,114.22 C546.08,117.11 615.92,126.04 671,152.3 C692.17,162.39 707.7415,175.9863 721.4915,190.4863" fill="none" id="Index-to-GalaxyCSS" style="stroke:#000000;stroke-width:1;"/><polygon fill="#000000" points="725.62,194.84,722.3297,185.557,722.1795,191.2119,716.5247,191.0618,725.62,194.84" style="stroke:#000000;stroke-width:1;"/></g><!--link Index to GalaxyJS--><g class="link" data-entity-1="ent0004" data-entity-2="ent0011" data-link-type="dependency" data-source-line="35" id="lnk23"><path d="M497.71,114.6 C589.28,117.66 763.23,126.73 819,152.3 C839.82,161.84 854.4803,175.6616 867.0903,190.4716" fill="none" id="Index-to-GalaxyJS" style="stroke:#000000;stroke-width:1;"/><polygon fill="#000000" points="870.98,195.04,868.191,185.5943,867.7386,191.233,862.0998,190.7806,870.98,195.04" style="stroke:#000000;stroke-width:1;"/></g><!--link App to ForecastModule--><g class="link" data-entity-1="ent0013" data-entity-2="ent0014" data-link-type="dependency" data-source-line="37" id="lnk24"><path d="M1112.73,135.78 C1100.15,153.27 1086.313,172.5087 1073.743,189.9887" fill="none" id="App-to-ForecastModule" style="stroke:#000000;stroke-width:1;"/><polygon fill="#000000" points="1070.24,194.86,1078.742,189.8884,1073.1591,190.8006,1072.2469,185.2178,1070.24,194.86" style="stroke:#000000;stroke-width:1;"/></g><!--link App to Models--><g class="link" data-entity-1="ent0013" data-entity-2="ent0015" data-link-type="dependency" data-source-line="38" id="lnk25"><path d="M1145.49,135.78 C1158.24,153.27 1172.266,172.5312 1185.006,190.0112" fill="none" id="App-to-Models" style="stroke:#000000;stroke-width:1;"/><polygon fill="#000000" points="1188.54,194.86,1186.4716,185.2308,1185.595,190.8193,1180.0065,189.9428,1188.54,194.86" style="stroke:#000000;stroke-width:1;"/></g><!--link ForecastModule to API--><g class="link" data-entity-1="ent0014" data-entity-2="ent0017" data-link-type="dependency" data-source-line="39" id="lnk26"><path d="M1054,242.08 C1054,259.57 1054,277.67 1054,295.15" fill="none" id="ForecastModule-to-API" style="stroke:#000000;stroke-width:1;"/><polygon fill="#000000" points="1054,301.15,1058,292.15,1054,296.15,1050,292.15,1054,301.15" style="stroke:#000000;stroke-width:1;"/></g><!--link Models to DB--><g class="link" data-entity-1="ent0015" data-entity-2="ent0016" data-link-type="dependency" data-source-line="40" id="lnk27"><path d="M1205,242.08 C1205,259.81 1205,278.33 1205,295.87" fill="none" id="Models-to-DB" style="stroke:#000000;stroke-width:1;"/><polygon fill="#000000" points="1205,301.87,1209,292.87,1205,296.87,1201,292.87,1205,301.87" style="stroke:#000000;stroke-width:1;"/></g><!--SRC=[TL91Ri8m4Bpx5TkSsWCS-e1AIH4L2AHMgTH3rSCsteB1iQtOIA2AlzTn4XOGzI79penNixEv2skg2Pn6POHmM6rnHP2zeCRz0Ju88zz0xfnM5GPbJGQ_0k99ZvD-sbWJo4YudokpmKTufphs3EGVXWlj-LH6qdwy3hN-0lGmQqjcjKMfp8hvHGUmuiSsLA4FB9ds26k-qHFpHQmITxnXkmnnfWfoxodu2wC-73IDA-zJa-UoP6gLiZbnNLIt59jpmRpyrqKHFr9sKur-UnaOEZTsXzGdBk5643qvnB2qSgU9TRMLfFsWMgRgseZ4W6reCO-tXGgKjT99mO9Asvs4hFyRyjTPKiItE0gHTWYZqLCNTRyo1WPdZ9nTQMFZYgEync9w8iwVaAjH1xYVxP9DJ6kqOrCvAVu0]--></g></svg>