<svg xmlns="http://www.w3.org/2000/svg" xmlns:xlink="http://www.w3.org/1999/xlink" contentStyleType="text/css" data-diagram-type="CLASS" height="509px" preserveAspectRatio="none" style="width:446px;height:509px;background:#FFFFFF;" version="1.1" viewBox="0 0 446 509" width="446px" zoomAndPan="magnify"><defs/><g><!--class WR--><g class="entity" data-qualified-name="WR" data-source-line="3" id="ent0002"><rect fill="#FFFFFF" height="141.7813" rx="2.5" ry="2.5" style="stroke:#000000;stroke-width:1;" width="193.4629" x="20.85" y="36.45"/><ellipse cx="55.2536" cy="50.45" fill="#FFFFFF" rx="9" ry="9" style="stroke:#000000;stroke-width:1;"/><path d="M59.3629,56.45 L51.6442,56.45 L51.6442,44.0594 L59.3629,44.0594 L59.3629,46.2156 L54.0973,46.2156 L54.0973,48.8875 L58.8629,48.8875 L58.8629,51.0437 L54.0973,51.0437 L54.0973,54.2937 L59.3629,54.2937 L59.3629,56.45 Z " fill="#000000"/><text fill="#000000" font-family="Verdana" font-size="14" lengthAdjust="spacing" textLength="117.8994" x="72.0099" y="55.2967">weather_request</text><line style="stroke:#000000;stroke-width:1;" x1="21.85" x2="213.3129" y1="64.45" y2="64.45"/><g data-visibility-modifier="IE_MANDATORY"><ellipse cx="31.85" cy="78.0984" fill="#FFFFFF" rx="3" ry="3" style="stroke:#000000;stroke-width:1;"/></g><text fill="#000000" font-family="Verdana" font-size="14" lengthAdjust="spacing" textLength="127.0186" x="38.85" y="81.4451">id : INTEGER &#171;PK&#187;</text><line style="stroke:#000000;stroke-width:1;" x1="21.85" x2="213.3129" y1="88.7469" y2="88.7469"/><g data-visibility-modifier="IE_MANDATORY"><ellipse cx="31.85" cy="102.3953" fill="#FFFFFF" rx="3" ry="3" style="stroke:#000000;stroke-width:1;"/></g><text fill="#000000" font-family="Verdana" font-size="14" lengthAdjust="spacing" textLength="89.5713" x="38.85" y="105.742">query : TEXT</text><g data-visibility-modifier="IE_MANDATORY"><ellipse cx="31.85" cy="118.6922" fill="#FFFFFF" rx="3" ry="3" style="stroke:#000000;stroke-width:1;"/></g><text fill="#000000" font-family="Verdana" font-size="14" lengthAdjust="spacing" textLength="127.8457" x="38.85" y="122.0389">query_type : TEXT</text><g data-visibility-modifier="IE_MANDATORY"><ellipse cx="31.85" cy="134.9891" fill="#FFFFFF" rx="3" ry="3" style="stroke:#000000;stroke-width:1;"/></g><text fill="#000000" font-family="Verdana" font-size="14" lengthAdjust="spacing" textLength="155.791" x="38.85" y="138.3357">range_days : INTEGER</text><g data-visibility-modifier="IE_MANDATORY"><ellipse cx="31.85" cy="151.2859" fill="#FFFFFF" rx="3" ry="3" style="stroke:#000000;stroke-width:1;"/></g><text fill="#000000" font-family="Verdana" font-size="14" lengthAdjust="spacing" textLength="169.4629" x="38.85" y="154.6326">created_at : TIMESTAMP</text><g data-visibility-modifier="IE_MANDATORY"><ellipse cx="31.85" cy="167.5828" fill="#FFFFFF" rx="3" ry="3" style="stroke:#000000;stroke-width:1;"/></g><text fill="#000000" font-family="Verdana" font-size="14" lengthAdjust="spacing" textLength="92.1758" x="38.85" y="170.9295">status : TEXT</text></g><!--class FR--><g class="entity" data-qualified-name="FR" data-source-line="13" id="ent0003"><rect fill="#FFFFFF" height="223.2656" rx="2.5" ry="2.5" style="stroke:#000000;stroke-width:1;" width="211.1543" x="12" y="279.67"/><ellipse cx="61.9082" cy="293.67" fill="#FFFFFF" rx="9" ry="9" style="stroke:#000000;stroke-width:1;"/><path d="M66.0176,299.67 L58.2988,299.67 L58.2988,287.2794 L66.0176,287.2794 L66.0176,289.4356 L60.752,289.4356 L60.752,292.1075 L65.5176,292.1075 L65.5176,294.2638 L60.752,294.2638 L60.752,297.5138 L66.0176,297.5138 L66.0176,299.67 Z " fill="#000000"/><text fill="#000000" font-family="Verdana" font-size="14" lengthAdjust="spacing" textLength="103.8379" x="79.4082" y="298.5167">forecast_result</text><line style="stroke:#000000;stroke-width:1;" x1="13" x2="222.1543" y1="307.67" y2="307.67"/><g data-visibility-modifier="IE_MANDATORY"><ellipse cx="23" cy="321.3184" fill="#FFFFFF" rx="3" ry="3" style="stroke:#000000;stroke-width:1;"/></g><text fill="#000000" font-family="Verdana" font-size="14" lengthAdjust="spacing" textLength="127.0186" x="30" y="324.6651">id : INTEGER &#171;PK&#187;</text><line style="stroke:#000000;stroke-width:1;" x1="13" x2="222.1543" y1="331.9669" y2="331.9669"/><g data-visibility-modifier="IE_MANDATORY"><ellipse cx="23" cy="345.6153" fill="#FFFFFF" rx="3" ry="3" style="stroke:#000000;stroke-width:1;"/></g><text fill="#000000" font-family="Verdana" font-size="14" lengthAdjust="spacing" textLength="187.1543" x="30" y="348.962">request_id : INTEGER &#171;FK&#187;</text><text fill="#000000" font-family="Verdana" font-size="14" lengthAdjust="spacing" textLength="151.4092" x="30" y="365.2589">location_name : TEXT</text><text fill="#000000" font-family="Verdana" font-size="14" lengthAdjust="spacing" textLength="102.6963" x="30" y="381.5557">country : TEXT</text><text fill="#000000" font-family="Verdana" font-size="14" lengthAdjust="spacing" textLength="103.2773" x="30" y="397.8526">latitude : REAL</text><text fill="#000000" font-family="Verdana" font-size="14" lengthAdjust="spacing" textLength="115.5342" x="30" y="414.1495">longitude : REAL</text><text fill="#000000" font-family="Verdana" font-size="14" lengthAdjust="spacing" textLength="144.6143" x="30" y="430.4464">forecast_data : TEXT</text><text fill="#000000" font-family="Verdana" font-size="14" lengthAdjust="spacing" textLength="144.252" x="30" y="446.7432">current_temp : REAL</text><text fill="#000000" font-family="Verdana" font-size="14" lengthAdjust="spacing" textLength="169.4492" x="30" y="463.0401">current_humidity : REAL</text><text fill="#000000" font-family="Verdana" font-size="14" lengthAdjust="spacing" textLength="171.9443" x="30" y="479.337">current_condition : TEXT</text><g data-visibility-modifier="IE_MANDATORY"><ellipse cx="23" cy="492.2872" fill="#FFFFFF" rx="3" ry="3" style="stroke:#000000;stroke-width:1;"/></g><text fill="#000000" font-family="Verdana" font-size="14" lengthAdjust="spacing" textLength="169.4629" x="30" y="495.6339">created_at : TIMESTAMP</text></g><!--class HC--><g class="entity" data-qualified-name="HC" data-source-line="28" id="ent0004"><rect fill="#FFFFFF" height="190.6719" rx="2.5" ry="2.5" style="stroke:#000000;stroke-width:1;" width="190.1748" x="249.49" y="12"/><ellipse cx="284.8964" cy="26" fill="#FFFFFF" rx="9" ry="9" style="stroke:#000000;stroke-width:1;"/><path d="M289.0058,32 L281.287,32 L281.287,19.6094 L289.0058,19.6094 L289.0058,21.7656 L283.7401,21.7656 L283.7401,24.4375 L288.5058,24.4375 L288.5058,26.5938 L283.7401,26.5938 L283.7401,29.8438 L289.0058,29.8438 L289.0058,32 Z " fill="#000000"/><text fill="#000000" font-family="Verdana" font-size="14" lengthAdjust="spacing" textLength="112.3828" x="301.8756" y="30.8467">historical_cache</text><line style="stroke:#000000;stroke-width:1;" x1="250.49" x2="438.6648" y1="40" y2="40"/><g data-visibility-modifier="IE_MANDATORY"><ellipse cx="260.49" cy="53.6484" fill="#FFFFFF" rx="3" ry="3" style="stroke:#000000;stroke-width:1;"/></g><text fill="#000000" font-family="Verdana" font-size="14" lengthAdjust="spacing" textLength="127.0186" x="267.49" y="56.9951">id : INTEGER &#171;PK&#187;</text><line style="stroke:#000000;stroke-width:1;" x1="250.49" x2="438.6648" y1="64.2969" y2="64.2969"/><g data-visibility-modifier="IE_MANDATORY"><ellipse cx="260.49" cy="77.9453" fill="#FFFFFF" rx="3" ry="3" style="stroke:#000000;stroke-width:1;"/></g><text fill="#000000" font-family="Verdana" font-size="14" lengthAdjust="spacing" textLength="152.1201" x="267.49" y="81.292">location_query : TEXT</text><g data-visibility-modifier="IE_MANDATORY"><ellipse cx="260.49" cy="94.2422" fill="#FFFFFF" rx="3" ry="3" style="stroke:#000000;stroke-width:1;"/></g><text fill="#000000" font-family="Verdana" font-size="14" lengthAdjust="spacing" textLength="80.7256" x="267.49" y="97.5889">date : TEXT</text><text fill="#000000" font-family="Verdana" font-size="14" lengthAdjust="spacing" textLength="118.9453" x="267.49" y="113.8857">avg_temp : REAL</text><text fill="#000000" font-family="Verdana" font-size="14" lengthAdjust="spacing" textLength="123.6963" x="267.49" y="130.1826">max_temp : REAL</text><text fill="#000000" font-family="Verdana" font-size="14" lengthAdjust="spacing" textLength="119.5947" x="267.49" y="146.4795">min_temp : REAL</text><text fill="#000000" font-family="Verdana" font-size="14" lengthAdjust="spacing" textLength="111.3916" x="267.49" y="162.7764">humidity : REAL</text><text fill="#000000" font-family="Verdana" font-size="14" lengthAdjust="spacing" textLength="113.8867" x="267.49" y="179.0732">condition : TEXT</text><g data-visibility-modifier="IE_MANDATORY"><ellipse cx="260.49" cy="192.0234" fill="#FFFFFF" rx="3" ry="3" style="stroke:#000000;stroke-width:1;"/></g><text fill="#000000" font-family="Verdana" font-size="14" lengthAdjust="spacing" textLength="166.1748" x="267.49" y="195.3701">cached_at : TIMESTAMP</text></g><!--link WR to FR--><g class="link" data-entity-1="ent0002" data-entity-2="ent0003" data-link-type="crowfoot" data-source-line="41" id="lnk5"><path codeLine="41" d="M117.58,186.4 C117.58,216.9 117.58,227.39 117.58,261.42" fill="none" id="WR-FR" style="stroke:#000000;stroke-width:1;"/><line style="stroke:#000000;stroke-width:1;" x1="113.58" x2="121.58" y1="182.4" y2="182.4"/><line style="stroke:#000000;stroke-width:1;" x1="113.58" x2="121.58" y1="185.4" y2="185.4"/><line style="stroke:#000000;stroke-width:1;" x1="117.58" x2="117.58" y1="186.4" y2="178.4"/><line style="stroke:#000000;stroke-width:1;" x1="117.58" x2="123.58" y1="271.42" y2="279.42"/><line style="stroke:#000000;stroke-width:1;" x1="117.58" x2="111.58" y1="271.42" y2="279.42"/><line style="stroke:#000000;stroke-width:1;" x1="117.58" x2="117.58" y1="271.42" y2="279.42"/><ellipse cx="117.58" cy="265.42" fill="none" rx="4" ry="4" style="stroke:#000000;stroke-width:1;"/><text fill="#000000" font-family="Verdana" font-size="13" lengthAdjust="spacing" textLength="22.9785" x="118.58" y="245.7369">has</text></g><!--SRC=[bP9HIyCm58NV-ojY7uN-WJ46GpeTEXcre6_XaiOsq2OrkL7Bvd_tThRRQZlGF9vxRZZVuLvX8Il9wXAK3WAfKM73mWy9f5jkvPkN3aC6ZZqdR1SmUjTCPMp6rezfV1idR3xVtYyMXqaKTGRQiWrvqlWbFPSuDhKSwXPqBda6ZJlzsOs4fHWouu3jodeJFwNBpROREWJqhl_hwvJzrLWfm265TxxyoRxwH_QEcVyohdfZQGIWCffhg0OimdYDG-oIdEYprfR4ouTkN-SZyHWw0uJ1fzvQ8kCeg_fyeTSBNwcivPwO2QDfH567ZL-ezQp2GZaqLWaekG1Ho4E7TpT_x_3OqSGX4E6WDdZFHtGLV8urfKVQ9Fq5wXPa2fhkUh-F8hDhhsH6yE32Rm00]--></g></svg>