<svg xmlns="http://www.w3.org/2000/svg" xmlns:xlink="http://www.w3.org/1999/xlink" width="446" height="509" contentStyleType="text/css" data-diagram-type="CLASS" style="width:446px;height:509px;background:#fff" preserveAspectRatio="none" version="1.1" viewBox="0 0 446 509" zoomAndPan="magnify"><g><g id="ent0002" class="entity" data-qualified-name="WR" data-source-line="3"><rect style="stroke:#000;stroke-width:1" width="193.463" height="141.781" x="20.85" y="36.45" fill="#FFF" rx="2.5" ry="2.5"/><ellipse cx="55.254" cy="50.45" fill="#FFF" rx="9" ry="9" style="stroke:#000;stroke-width:1"/><path fill="#000" d="M59.3629,56.45 L51.6442,56.45 L51.6442,44.0594 L59.3629,44.0594 L59.3629,46.2156 L54.0973,46.2156 L54.0973,48.8875 L58.8629,48.8875 L58.8629,51.0437 L54.0973,51.0437 L54.0973,54.2937 L59.3629,54.2937 L59.3629,56.45 Z"/><text x="72.01" y="55.297" fill="#000" font-family="Verdana" font-size="14" lengthAdjust="spacing" textLength="117.899">weather_request</text><line style="stroke:#000;stroke-width:1" x1="21.85" x2="213.313" y1="64.45" y2="64.45"/><g data-visibility-modifier="IE_MANDATORY"><ellipse cx="31.85" cy="78.098" fill="#FFF" rx="3" ry="3" style="stroke:#000;stroke-width:1"/></g><text x="38.85" y="81.445" fill="#000" font-family="Verdana" font-size="14" lengthAdjust="spacing" textLength="127.019">id : INTEGER «PK»</text><line style="stroke:#000;stroke-width:1" x1="21.85" x2="213.313" y1="88.747" y2="88.747"/><g data-visibility-modifier="IE_MANDATORY"><ellipse cx="31.85" cy="102.395" fill="#FFF" rx="3" ry="3" style="stroke:#000;stroke-width:1"/></g><text x="38.85" y="105.742" fill="#000" font-family="Verdana" font-size="14" lengthAdjust="spacing" textLength="89.571">query : TEXT</text><g data-visibility-modifier="IE_MANDATORY"><ellipse cx="31.85" cy="118.692" fill="#FFF" rx="3" ry="3" style="stroke:#000;stroke-width:1"/></g><text x="38.85" y="122.039" fill="#000" font-family="Verdana" font-size="14" lengthAdjust="spacing" textLength="127.846">query_type : TEXT</text><g data-visibility-modifier="IE_MANDATORY"><ellipse cx="31.85" cy="134.989" fill="#FFF" rx="3" ry="3" style="stroke:#000;stroke-width:1"/></g><text x="38.85" y="138.336" fill="#000" font-family="Verdana" font-size="14" lengthAdjust="spacing" textLength="155.791">range_days : INTEGER</text><g data-visibility-modifier="IE_MANDATORY"><ellipse cx="31.85" cy="151.286" fill="#FFF" rx="3" ry="3" style="stroke:#000;stroke-width:1"/></g><text x="38.85" y="154.633" fill="#000" font-family="Verdana" font-size="14" lengthAdjust="spacing" textLength="169.463">created_at : TIMESTAMP</text><g data-visibility-modifier="IE_MANDATORY"><ellipse cx="31.85" cy="167.583" fill="#FFF" rx="3" ry="3" style="stroke:#000;stroke-width:1"/></g><text x="38.85" y="170.929" fill="#000" font-family="Verdana" font-size="14" lengthAdjust="spacing" textLength="92.176">status : TEXT</text></g><g id="ent0003" class="entity" data-qualified-name="FR" data-source-line="13"><rect style="stroke:#000;stroke-width:1" width="211.154" height="223.266" x="12" y="279.67" fill="#FFF" rx="2.5" ry="2.5"/><ellipse cx="61.908" cy="293.67" fill="#FFF" rx="9" ry="9" style="stroke:#000;stroke-width:1"/><path fill="#000" d="M66.0176,299.67 L58.2988,299.67 L58.2988,287.2794 L66.0176,287.2794 L66.0176,289.4356 L60.752,289.4356 L60.752,292.1075 L65.5176,292.1075 L65.5176,294.2638 L60.752,294.2638 L60.752,297.5138 L66.0176,297.5138 L66.0176,299.67 Z"/><text x="79.408" y="298.517" fill="#000" font-family="Verdana" font-size="14" lengthAdjust="spacing" textLength="103.838">forecast_result</text><line style="stroke:#000;stroke-width:1" x1="13" x2="222.154" y1="307.67" y2="307.67"/><g data-visibility-modifier="IE_MANDATORY"><ellipse cx="23" cy="321.318" fill="#FFF" rx="3" ry="3" style="stroke:#000;stroke-width:1"/></g><text x="30" y="324.665" fill="#000" font-family="Verdana" font-size="14" lengthAdjust="spacing" textLength="127.019">id : INTEGER «PK»</text><line style="stroke:#000;stroke-width:1" x1="13" x2="222.154" y1="331.967" y2="331.967"/><g data-visibility-modifier="IE_MANDATORY"><ellipse cx="23" cy="345.615" fill="#FFF" rx="3" ry="3" style="stroke:#000;stroke-width:1"/></g><text x="30" y="348.962" fill="#000" font-family="Verdana" font-size="14" lengthAdjust="spacing" textLength="187.154">request_id : INTEGER «FK»</text><text x="30" y="365.259" fill="#000" font-family="Verdana" font-size="14" lengthAdjust="spacing" textLength="151.409">location_name : TEXT</text><text x="30" y="381.556" fill="#000" font-family="Verdana" font-size="14" lengthAdjust="spacing" textLength="102.696">country : TEXT</text><text x="30" y="397.853" fill="#000" font-family="Verdana" font-size="14" lengthAdjust="spacing" textLength="103.277">latitude : REAL</text><text x="30" y="414.149" fill="#000" font-family="Verdana" font-size="14" lengthAdjust="spacing" textLength="115.534">longitude : REAL</text><text x="30" y="430.446" fill="#000" font-family="Verdana" font-size="14" lengthAdjust="spacing" textLength="144.614">forecast_data : TEXT</text><text x="30" y="446.743" fill="#000" font-family="Verdana" font-size="14" lengthAdjust="spacing" textLength="144.252">current_temp : REAL</text><text x="30" y="463.04" fill="#000" font-family="Verdana" font-size="14" lengthAdjust="spacing" textLength="169.449">current_humidity : REAL</text><text x="30" y="479.337" fill="#000" font-family="Verdana" font-size="14" lengthAdjust="spacing" textLength="171.944">current_condition : TEXT</text><g data-visibility-modifier="IE_MANDATORY"><ellipse cx="23" cy="492.287" fill="#FFF" rx="3" ry="3" style="stroke:#000;stroke-width:1"/></g><text x="30" y="495.634" fill="#000" font-family="Verdana" font-size="14" lengthAdjust="spacing" textLength="169.463">created_at : TIMESTAMP</text></g><g id="ent0004" class="entity" data-qualified-name="HC" data-source-line="28"><rect style="stroke:#000;stroke-width:1" width="190.175" height="190.672" x="249.49" y="12" fill="#FFF" rx="2.5" ry="2.5"/><ellipse cx="284.896" cy="26" fill="#FFF" rx="9" ry="9" style="stroke:#000;stroke-width:1"/><path fill="#000" d="M289.0058,32 L281.287,32 L281.287,19.6094 L289.0058,19.6094 L289.0058,21.7656 L283.7401,21.7656 L283.7401,24.4375 L288.5058,24.4375 L288.5058,26.5938 L283.7401,26.5938 L283.7401,29.8438 L289.0058,29.8438 L289.0058,32 Z"/><text x="301.876" y="30.847" fill="#000" font-family="Verdana" font-size="14" lengthAdjust="spacing" textLength="112.383">historical_cache</text><line style="stroke:#000;stroke-width:1" x1="250.49" x2="438.665" y1="40" y2="40"/><g data-visibility-modifier="IE_MANDATORY"><ellipse cx="260.49" cy="53.648" fill="#FFF" rx="3" ry="3" style="stroke:#000;stroke-width:1"/></g><text x="267.49" y="56.995" fill="#000" font-family="Verdana" font-size="14" lengthAdjust="spacing" textLength="127.019">id : INTEGER «PK»</text><line style="stroke:#000;stroke-width:1" x1="250.49" x2="438.665" y1="64.297" y2="64.297"/><g data-visibility-modifier="IE_MANDATORY"><ellipse cx="260.49" cy="77.945" fill="#FFF" rx="3" ry="3" style="stroke:#000;stroke-width:1"/></g><text x="267.49" y="81.292" fill="#000" font-family="Verdana" font-size="14" lengthAdjust="spacing" textLength="152.12">location_query : TEXT</text><g data-visibility-modifier="IE_MANDATORY"><ellipse cx="260.49" cy="94.242" fill="#FFF" rx="3" ry="3" style="stroke:#000;stroke-width:1"/></g><text x="267.49" y="97.589" fill="#000" font-family="Verdana" font-size="14" lengthAdjust="spacing" textLength="80.726">date : TEXT</text><text x="267.49" y="113.886" fill="#000" font-family="Verdana" font-size="14" lengthAdjust="spacing" textLength="118.945">avg_temp : REAL</text><text x="267.49" y="130.183" fill="#000" font-family="Verdana" font-size="14" lengthAdjust="spacing" textLength="123.696">max_temp : REAL</text><text x="267.49" y="146.48" fill="#000" font-family="Verdana" font-size="14" lengthAdjust="spacing" textLength="119.595">min_temp : REAL</text><text x="267.49" y="162.776" fill="#000" font-family="Verdana" font-size="14" lengthAdjust="spacing" textLength="111.392">humidity : REAL</text><text x="267.49" y="179.073" fill="#000" font-family="Verdana" font-size="14" lengthAdjust="spacing" textLength="113.887">condition : TEXT</text><g data-visibility-modifier="IE_MANDATORY"><ellipse cx="260.49" cy="192.023" fill="#FFF" rx="3" ry="3" style="stroke:#000;stroke-width:1"/></g><text x="267.49" y="195.37" fill="#000" font-family="Verdana" font-size="14" lengthAdjust="spacing" textLength="166.175">cached_at : TIMESTAMP</text></g><g id="lnk5" class="link" data-entity-1="ent0002" data-entity-2="ent0003" data-link-type="crowfoot" data-source-line="41"><path id="WR-FR" fill="none" d="M117.58,186.4 C117.58,216.9 117.58,227.39 117.58,261.42" codeLine="41" style="stroke:#000;stroke-width:1"/><line style="stroke:#000;stroke-width:1" x1="113.58" x2="121.58" y1="182.4" y2="182.4"/><line style="stroke:#000;stroke-width:1" x1="113.58" x2="121.58" y1="185.4" y2="185.4"/><line style="stroke:#000;stroke-width:1" x1="117.58" x2="117.58" y1="186.4" y2="178.4"/><line style="stroke:#000;stroke-width:1" x1="117.58" x2="123.58" y1="271.42" y2="279.42"/><line style="stroke:#000;stroke-width:1" x1="117.58" x2="111.58" y1="271.42" y2="279.42"/><line style="stroke:#000;stroke-width:1" x1="117.58" x2="117.58" y1="271.42" y2="279.42"/><ellipse cx="117.58" cy="265.42" fill="none" rx="4" ry="4" style="stroke:#000;stroke-width:1"/><text x="118.58" y="245.737" fill="#000" font-family="Verdana" font-size="13" lengthAdjust="spacing" textLength="22.979">has</text></g></g></svg>